<?xml version="1.0" encoding="utf-8"?>
<!-- Generator: Adobe Illustrator 24.0.0, SVG Export Plug-In . SVG Version: 6.00 Build 0)  -->
<svg version="1.1" id="Layer_1" xmlns="http://www.w3.org/2000/svg" xmlns:xlink="http://www.w3.org/1999/xlink" x="0px" y="0px"
	 viewBox="0 0 438 140" style="enable-background:new 0 0 438 140;" xml:space="preserve">
<style type="text/css">
	.st0{fill-rule:evenodd;clip-rule:evenodd;fill:#FFFFFF;}
</style>
<g>
	<path class="st0" d="M311,41.2l2.5-3.8c-2.5-1.8-5.9-2.7-9-2.7c-3.2,0-6.5,1.1-8.4,3.8c-0.9,1.3-1.3,2.9-1.3,4.5
		c0,1.5,0.4,2.9,1.1,4.1c1.2,1.9,3.2,2.8,5.3,3.4l3,0.8c1.9,0.5,3.6,1.4,3.6,3.6c0,2.9-2.3,3.8-4.9,3.8c-2.8,0-5-0.9-7.5-2.2l-2,4.1
		c2.7,1.5,6.1,2.4,9.2,2.4c3.7,0,7.7-1.1,9.9-4.4c0.9-1.4,1.3-3,1.3-4.7c0-4.4-2.8-6.9-6.9-8.1l-3.3-0.9c-1.6-0.4-3.1-1-3.1-2.8
		c0-2.2,1.9-3.2,3.9-3.2C307.1,39.2,309,40,311,41.2 M281.7,51.8h-5.6v-0.1c0.5-1.7,1-3.3,1.5-5.1c0.4-1.7,0.9-3.5,1.3-5.3L279,41
		l0.1,0.3c0.4,1.6,0.7,3.2,1.1,4.8C280.6,48.1,281.1,49.9,281.7,51.8L281.7,51.8z M290.7,62.7l-8.6-27.2h-5.8l-8.9,27.2h5.6l1.9-6.5
		h8.1l1.9,6.5H290.7z M262.3,35.6h-5.4v22.5c0,1.5,0.1,3.6-0.6,5.1c-0.5,1.3-2,2.5-3.1,3.3l2.5,2.7c2.8-1.1,5.5-3.3,6.3-6.3
		c0.4-1.8,0.4-3.5,0.4-5.3L262.3,35.6L262.3,35.6z M248.6,35.6H243v27.1h5.6V35.6z M220.3,35.6h-5.8l9.2,27.3h4.9l9.4-27.3h-5.6
		L227.8,49c-0.6,1.7-1.2,3.6-1.6,5.4l-0.1,0.4l-0.1-0.4c-0.3-1.6-0.8-3.2-1.3-4.7L220.3,35.6z M213.6,35.6h-19.5V40h6.7v22.7h5.4V40
		h6.5L213.6,35.6z M184.7,51.8h-5.6v-0.1c0.5-1.7,1-3.3,1.5-5.1c0.4-1.7,0.9-3.5,1.3-5.3L182,41l0.1,0.3c0.4,1.6,0.7,3.2,1.1,4.8
		C183.6,48.1,184.1,49.9,184.7,51.8L184.7,51.8z M193.6,62.7L185,35.5h-5.8l-8.9,27.2h5.6l1.9-6.5h8.1l1.9,6.5H193.6z M172.7,78
		h-5.4v17.4c0,0.8,0,1.6-0.1,2.4c-0.3,2.3-2.1,3.2-4.2,3.2c-1.5,0-3.1-0.5-3.8-1.9c-0.4-0.9-0.5-2.3-0.5-3.3V78h-5.5v18.9
		c0,2,0.1,3.4,1.2,5.1c1.8,2.9,5.5,3.6,8.7,3.6c2.3,0,4.6-0.5,6.5-1.7c1.2-0.8,2.2-2,2.7-3.3c0.1-0.3,0.2-0.6,0.2-0.8
		c0.2-1,0.2-2.3,0.2-3.4L172.7,78L172.7,78z M187.1,78h-6v27.1h5.1L186,93.5c0-2.6-0.1-5.2-0.3-7.7v-0.1h0.1v0.1
		c0.3,1,0.8,2.1,1.2,3.1c0.6,1.4,1.2,2.8,1.8,4.2c0.2,0.5,0.5,1.1,0.7,1.6l4.7,10.4h5.6V78h-5.1l0.3,11c0.1,2.5,0.2,5,0.4,7.5v0.1
		h-0.1v-0.1c-0.7-2.6-1.8-5.3-3-7.7L187.1,78z M214.1,78h-5.6v27.1h5.6V78z M224.9,78h-5.8l9.2,27.3h4.9l9.4-27.3H237l-4.6,13.4
		c-0.6,1.7-1.2,3.6-1.6,5.4l-0.1,0.4l-0.1-0.4c-0.3-1.6-0.8-3.2-1.3-4.7L224.9,78z M263.3,105.1v-4.6H253V93h7.7v-4.3h-7.8v-6.4h9.4
		L263,78h-15.4v27.1C247.6,105.1,263.3,105.1,263.3,105.1z M282.3,86c0,1-0.3,2.1-1.1,2.8c-1,0.9-2.9,0.9-4.2,0.9h-1.9v-7.5h2
		c0.9,0,2.2,0.1,3.1,0.4C281.8,83.1,282.3,84.5,282.3,86 M289.5,105.1c-1.1-1.8-2.1-3.7-3.2-5.5c-0.6-1-1.2-2-1.8-3
		c-0.4-0.7-0.9-1.4-1.4-2c-0.4-0.5-0.7-0.8-1.1-1.1l-0.2-0.1h0.2c0.5,0,1.1-0.1,1.6-0.3c2.9-1,4.4-4.2,4.4-7.2
		c0-4.8-3.2-7.9-7.9-7.9H270v27.1h5.2V93.7h0.1c0.3,0,0.6,0.1,0.9,0.2c0.7,0.3,1.2,1.1,1.6,1.7c1.1,1.6,2,3.4,2.9,5
		c0.8,1.5,1.7,3,2.5,4.4h6.3V105.1z M310.6,83.6l2.5-3.8c-2.5-1.8-5.9-2.7-9-2.7c-3.2,0-6.5,1.1-8.4,3.8c-0.9,1.3-1.3,2.9-1.3,4.5
		c0,1.5,0.4,2.9,1.1,4.1c1.2,1.9,3.2,2.8,5.3,3.4l3,0.8c1.9,0.5,3.6,1.4,3.6,3.6c0,2.9-2.3,3.8-4.9,3.8c-2.8,0-5-0.9-7.5-2.2l-2,4.1
		c2.7,1.5,6.1,2.4,9.2,2.4c3.7,0,7.7-1.1,9.9-4.4c0.9-1.4,1.3-3,1.3-4.7c0-4.4-2.8-6.9-6.9-8.1l-3.3-0.9c-1.6-0.4-3.1-1-3.1-2.8
		c0-2.2,1.9-3.2,3.9-3.2C306.7,81.5,308.6,82.4,310.6,83.6 M326.2,78h-5.6v27.1h5.6V78z M350.4,78h-19.5v4.4h6.7v22.7h5.4V82.4h6.5
		L350.4,78z M364.3,94.2h-5.6v-0.1c0.5-1.7,1-3.3,1.5-5.1c0.4-1.7,0.9-3.5,1.3-5.3l0.1-0.3l0.1,0.3c0.4,1.6,0.7,3.2,1.1,4.8
		C363.2,90.4,363.7,92.3,364.3,94.2L364.3,94.2z M373.2,105.1l-8.6-27.2h-5.8l-8.9,27.2h5.6l1.9-6.5h8.1l1.9,6.5
		C367.4,105.1,373.2,105.1,373.2,105.1z M367.4,72H356v3.2h11.3V72H367.4z M392.8,78h-19.5v4.4h6.7v22.7h5.4V82.4h6.5L392.8,78z
		 M412.6,105.1v-4.6h-10.3V93h7.7v-4.3h-7.8v-6.4h9.4l0.7-4.3h-15.4v27.1C396.9,105.1,412.6,105.1,412.6,105.1z M168.5,58.3h-9.8
		V35.6h-5.5v27.1h14.3L168.5,58.3z"/>
	<path class="st0" d="M71.8,3C34.7,3,4.6,33.1,4.6,70.2s30.1,67.2,67.2,67.2S139,107.3,139,70.2S108.9,3,71.8,3 M71.8,1.3
		c38,0,68.9,30.8,68.9,68.9c0,38-30.8,68.9-68.9,68.9c-38,0-68.9-30.8-68.9-68.9C2.9,32.2,33.7,1.3,71.8,1.3"/>
	<path class="st0" d="M78.9,94.7c0.5-0.1,1.3-0.8,1.8-0.6c0.1,0.1,0.2,0.2,0.2,0.4c0,0.1,0,0.2,0,0.3c0,0.1,0,0.2,0,0.3
		c-0.1,1.6-0.1,2.9,0,4.4c0,0.7,0.1,1.3,0.1,2c0,0.4,0.1,0.8,0.1,1.2c0,0.2,0.1,0.6,0.2,0.8c0,0.1,0.1,0.3,0.2,0.4l0.2,0.1
		c0.4,0.3,0.9,0.6,1.3,0.9l0.1,0.1c0.5,0.5,0.9,0.9,1.4,1.4c0.5,0.6,1,1.2,1.4,1.9c0.3,0.5,0.7,1.1,0.9,1.6c0,0.1,0.1,0.2,0,0.3
		c0,0.2-0.1,0.2-0.3,0.3h-0.2l-0.8,0.2c-0.2,0.1-0.3,0.1-0.5,0.1c-0.1,0-0.2,0-0.3,0c-0.5-0.1-0.9-0.3-1.3-0.5l-4.6-1.9
		c-1-0.4-1.2-0.2-1.6-1.3c-0.1-0.4-0.2-0.9-0.3-1.3c-0.2-0.8-0.3-1.7-0.5-2.5c0-0.2-0.1-0.8-0.4-0.9c0,0,0,0-0.1,0h-0.1
		c-0.2,0.1-0.2,0.7-0.3,0.9c-0.3,1.3-0.2,2.2-0.7,3.7c-0.2,0.5-0.4,1-0.6,1.4c-0.4,0.7-1,1.4-1.6,2c-0.1,0.1-1,0.8-1.1,0.8
		c-0.6,0.1-1,0-1.4-0.5l-1.2-1.8c-0.3-0.4-0.5-0.8-0.8-1.1c-0.1-0.2-0.3-0.4-0.3-0.6c-0.1-0.2,0-0.5,0-0.7c0.2-1.5,0.3-2.8,0.3-4.3
		c0-1.2,0.1-2.3,0.1-3.5c0-0.2,0-0.5,0-0.8v-0.1c-0.1-0.7-0.2-1-0.3-1c-0.1,0-0.1,0-0.2,0.1c-0.2,0.1-0.2,1.4-0.3,1.7
		c-0.4,2.8-0.5,6.3-2.3,8.6c-0.5,0.6-1,1.1-1.6,1.1l-1.2,0.1h-0.4l-1.5,0.8c-0.1,0.1-0.3,0.1-0.4,0.2c-0.9,0.3-1.9,0.6-2.8,0.4
		c-0.1,0-0.1,0-0.2-0.1c-0.3-0.1-0.6-0.2-0.4-0.6c0.2-0.5,0.5-0.9,0.8-1.4c0.4-0.8,1.1-2,1.8-2.6c0.9-0.8,2.8-2.2,3.2-3.3
		c0-0.1,0.1-0.2,0.1-0.3c0.4-2,0.2-6.8,0.2-9c0-0.2,0-0.4-0.1-0.6s-0.2-0.5-0.3-0.8c-0.5-1.3-1-2.7-1.3-3.9c-0.1-0.3-0.2-0.7-0.3-1
		c-0.1-0.2-0.2-0.4-0.4-0.6s-0.4-0.3-0.7-0.4c-1.2-0.5-2.5-1-3.7-1.6c-0.7-0.3-1.3-0.6-1.9-1.1c-0.2-0.2-0.4-0.3-0.5-0.5
		c-0.2-0.3-0.4-0.9-0.2-1.3c0.3-0.5,0.9-0.4,1.3-0.2c0.1,0.1,0.3,0.1,0.4,0.2c0.9,0.3,2.2,0.8,2.7,0.7c0.2,0,0.4-0.1,0.2-0.5
		c-0.1-0.1-0.1-0.2-0.2-0.3c-0.1-0.1-0.1-0.2-0.2-0.3c-0.1-0.1-0.2-0.3-0.3-0.4c-0.6-1-1.1-1.8-1.6-3c-0.1-0.1-0.1-0.3-0.1-0.4
		c-0.2-0.9,0.6-1.2,1.2-0.8c0.3,0.2,0.5,0.5,0.7,0.7c0.9,1.3,1.5,2.8,2.5,4.2c0.5,0.6,0.6,0.7,1.3,1.1s1.4,0.7,2.2,1.2
		c0.5,0.3,1.2,1.9,1.4,2.4c0.4,0.9,0.9,1.9,1.2,2.8c0.5,1.4,0.9,2.5,1.1,3.8c0.1,0.7,0.2,1.2,0.4,1.8c0.1,0.2,0.1,0.3,0.3,0.3
		c0.3,0,0.3-0.6,0.3-1c0-0.2,0-0.3,0-0.4s0-0.2,0-0.4c0-0.3,0-0.4,0-0.7c0-0.5,0-1-0.1-1.5c0-0.4-0.1-0.7-0.1-1.1
		c-0.2-1.4-1.7-3.9-2.4-5.1c-0.8-1.3-2.3-3.8-3.2-5c-0.3-0.4-2.1-1.4-2.9-2.2c-0.3-0.3-0.3-0.6-0.2-0.9c0.1-0.2,0.2-0.4,0.4-0.4
		c0.2-0.1,0.3-0.1,0.5-0.1c0.3,0,1,0.4,1.6,0.7c0.3,0.1,0.6,0.3,0.9,0.3c0.3-0.1,0.4-0.2,0.4-0.5s0-0.7,0-1.1c0-0.3,0-0.4,0.1-0.6
		c0.1-0.3,0.3-0.5,0.6-0.4c0.5,0.2,0.7,0.8,0.7,1.4c0,0.5,0.1,1.5,0.3,2.6c0.2,0.7,0.5,1.3,1.1,1.9c1.2,1.1,1.8,1.9,2.6,3
		c0.4,0.6,0.5,1.4,0.5,2.1c0,0.1,0,0.5,0.1,0.6c0,0.1,0.2,0.2,0.3,0.2c0.3,0,0.5-0.1,0.5-0.4c0-0.2,0-0.5,0-0.8c0-0.2,0-0.5,0-0.7
		s0-0.4,0-0.6c0-0.3,0-0.7-0.1-1c0-0.1-0.1-0.3-0.1-0.4c-0.1-0.2-0.2-0.3-0.3-0.4c-0.8-1-1.7-2.1-2.3-3.3c-0.6-1-0.8-2.2-1.3-3.2
		c-0.7-1.7-2.5-4.3-4-5.2c-0.3-0.2-1-0.5-1.5-0.8l-0.1-0.1c-0.1-0.1-0.2-0.2-0.3-0.2c-0.2-0.3,0-0.8,0.4-0.8c0.1,0,0.2,0,0.2,0
		c0.5,0.1,1,0.4,1.5,0.4c0.1,0,0.1-0.1,0.2-0.1c0.1-0.1,0.1-0.2,0.2-0.3c0.1-0.2,0-0.5,0-0.7c-0.1-0.7-0.5-1.7-0.7-2.5
		c-0.1-0.3-0.1-0.5,0-0.8c0.1-0.4,0.2-0.7,0.6-0.7c0.6-0.1,0.9,0.6,1,1.1c0,0.2,0.1,0.2,0.1,0.4c0.6,2.4,1,4,2.3,5.5
		c0.8,1,2,1.8,2.9,2.7c0.2,0.2,0.5,0.5,0.6,0.6s0.1,0.1,0.2,0.1c0.2,0.1,0.3,0.1,0.4-0.1c0.1-0.3,0.1-0.7-0.1-0.9
		c-0.1-0.2-0.4-0.5-0.6-0.8c-0.4-0.6-0.8-1.3-0.9-1.8c0-0.1,0-0.2,0-0.4c0-0.1,0-0.3,0.1-0.4c0.1-0.5,0.1-0.9,0.2-1.3
		c0-0.2,0.1-0.3,0.1-0.6c0-0.1,0-0.2,0-0.3c0-0.7-0.4-2.4-0.1-2.9c0.1-0.1,0.1-0.2,0.2-0.3s0.2-0.1,0.2-0.2c0.3-0.2,0.5-0.3,0.8-0.4
		c0.3-0.1,0.5-0.1,0.8,0c0.1,0,0.2,0.1,0.3,0.1c0.1,0.1,0.3,0.2,0.4,0.4c0.6,0.9,0.8,2.3,1.2,3.4c0.1,0.1,0.1,0.3,0.3,0.6
		c0.1,0.3,0.3,0.7,0.5,0.8c0.1,0.1,0.3,0.1,0.5,0c0.1-0.1,0.1-0.2,0.1-0.3c0-0.1,0-0.5-0.1-0.8c0-0.1,0-0.1,0-0.2s0-0.2,0-0.3
		c0-0.1,0-0.2,0-0.4c0-0.1,0-0.2,0.1-0.2c0.8-1.3,1.2-3.3,1.4-4.8c0.1-0.6,0.5-0.8,0.9-0.8h0.1c0.2,0,0.3,0,0.5,0c0.1,0,0.1,0,0.2,0
		c0.7,0.2,0.8,0.6,0.7,1.4c0,0.1,0,0.2,0,0.3c-0.2,1.4-0.2,2.8-0.3,4.2c0,0.3,0,0.4,0,0.6c0.1,1.2-0.7,1.2-1.3,1.3
		c-1,0.1-1.6,0.5-1.9,1.4c-0.1,0.2-0.1,0.4-0.2,0.5c-0.1,0.2-0.1,0.3-0.2,0.5s-0.2,0.5-0.2,0.7c-0.1,0.5-0.3,1.1,0,1.8
		c0.1,0.2,0.2,0.5,0.3,0.8c0.1,0.5-0.2,1-0.6,1.4c-0.7,0.8-1.4,0.8-1.6,2.5c-0.1,1.2,0.7,2.7,1.8,3.2c0.3,0.1,0.6,0.1,0.9,0.1
		c0.1,0,0.5-0.1,0.6-0.1s0.1,0,0.2,0c0.5-0.1,0.5,0,0.9,0.2c1.5,0.9,2.8,0.2,3.4-0.7c0.2-0.3,0.4-0.6,0.7-0.7c0,0,0,0,0.1,0
		c0.3,0,0.5,0.1,0.6,0.2s-0.2,1.7-0.4,2.3c0,0.1-0.1,0.1-0.1,0.1c-0.3,0.5-0.8,1-1.2,1.5c-0.2,0.3-0.4,0.6-0.7,0.8
		c-0.1,0.1-0.3,0.4-0.4,0.5c-0.1,0.2-0.2,0.4-0.2,0.5c0,0.2,0.1,0.5,0.5,0.3s1.2-0.9,1.6-1.3c0.3-0.2,0.5-0.5,0.8-0.7
		c0.6-0.6,1.1-1.1,1.3-1.3c0.7-0.7,2.4-1.9,3.1-2.1c0.8-0.1,1.5,0,1.8,0.9c0.3,0.8,0.2,1.3-0.5,2c-0.8,0.8-2.7,3-3,3.7
		c-0.1,0.3-1.8,3.6-2.1,4c-0.7,0.8-1.2,1.3-2.1,2.2c-0.1,0.1-0.4,0.4-0.5,0.5s-0.2,0.2-0.2,0.3C78.1,94.4,78.5,94.9,78.9,94.7
		 M50.7,80.6c0.5-0.5,1.1,0,1.3,0.5c0.2,0.4,0.2,1.2-0.3,1.4C50.8,82.9,49.9,81.3,50.7,80.6 M52.4,87.2c-0.2,0.5-0.8,0.6-1.3,0.4
		c-0.3-0.2-0.5,0.3-0.6,0.5c-0.3,0.5-0.8,0.9-1.4,1c-0.4,0.1-0.9,0.1-1.2-0.2c-0.3-0.2-0.5-0.6-0.5-1s0.1-0.9,0.2-1.2
		c0.1-0.3,0.3-0.7,0.2-0.9c-0.1-0.2-0.3-0.4-0.5-0.6c-0.7-0.7-1-1.3-0.3-2.1c0.4-0.5,0.8-0.6,0.9-1.3c0-0.3,0.1-0.5,0.3-0.6
		c0.2-0.2,0.5-0.2,0.7-0.1c0.3,0.1,0.5,0.3,0.7,0.5c0.4,0.8-0.6,1.6-1.1,2.1c-0.1,0.1-0.5,0.5-0.4,0.6s0.5,0,0.6-0.1
		c0.1,0,0.2-0.1,0.3-0.2c0.5-0.3,1-0.4,1,0.4c0,0.5-0.1,0.9-0.3,1.4c0,0.1-0.2,0.9,0,0.9c0.1,0,0.2-0.1,0.3-0.1
		c0.1-0.1,0.2-0.3,0.3-0.5c0.1-0.3,0.2-0.6,0.3-0.9c0.1-0.2,0.2-0.5,0.5-0.6c0.1,0,0.2-0.1,0.3-0.1c0.7,0,1.1,0.6,1.2,1.2
		C52.6,86.2,52.6,86.7,52.4,87.2 M46.2,79.9c-0.3,1-1.3,1.3-2.3,1.2c-0.8-0.1-1.5-0.9-1.7-1.7c0-0.1-0.1-0.2-0.1-0.3
		c0-0.2,0-0.3,0.1-0.5s0.2-0.7,0.1-0.9c-0.1-0.2-0.4-0.3-0.5-0.4s-0.2-0.1-0.2-0.2c-0.5-0.6,0-1.5,0.4-2.1c0.1-0.1,0.2-0.2,0.2-0.3
		c0.1-0.2,0.3-0.3,0.4-0.5c0.1-0.2,0.1-0.3,0.2-0.5c0-0.2,0-0.3,0.1-0.5c0.1-0.3,0.3-0.6,0.6-0.8c0.2-0.1,0.4-0.2,0.6,0
		c0.2,0.1,0.2,0.4,0.2,0.6c0,0.3-0.1,0.3-0.2,0.6c-0.2,0.4-0.4,0.7-0.5,1c0,0.1-0.2,0.4-0.1,0.4c0.1,0,0.2,0,0.2-0.1
		c0.3-0.2,0.5-0.4,0.7-0.6c0.1-0.1,0.4-0.5,0.6-0.3c0.2,0.2,0,1.2-0.1,1.5s-0.1,0.5-0.2,0.8c-0.2,0.7-0.5,1.3-0.7,2
		c0,0.1,0,0.1-0.1,0.2c0,0.3,0.2,0.2,0.4,0.1l0.1-0.1c0.7-0.6,1.1-0.9,1.7,0.1C46.2,79,46.3,79.5,46.2,79.9 M46.1,86.8
		c-0.1,0.8-0.5,1.6-1.2,2c-0.2,0.1-0.4,0.2-0.7,0.1c-0.6-0.2-0.8-1.1-0.9-1.6c0-0.3,0-1,0.3-1.1c0.1,0,0.2,0,0.3,0s0.2,0.1,0.3,0.1
		l0,0l0,0c0.2,0.1,0.6,0.2,0.7,0c0-0.1-0.1-0.2-0.2-0.3c-0.2-0.1-0.4-0.3-0.7-0.5l-0.1-0.1c-1-0.6-1.8-2.2-0.5-2.9l0,0l0,0
		c0.6-0.2,1.6-0.3,2,0.4c0.2,0.3,0.1,0.6,0,0.8c-0.2,0.4-0.5,0.9-0.3,1.4c0.1,0.3,0.2,0.5,0.4,0.8c0.1,0.1,0.2,0.3,0.2,0.5
		C46.1,86.6,46.1,86.7,46.1,86.8 M41.3,88c-0.2,0.2-0.5,0.3-0.8,0.4c-0.2,0.1-0.5,0.1-0.7,0.1c-0.3,0-0.5-0.1-0.7-0.3
		c0,0-0.1-0.1-0.1-0.2s-0.1-0.1-0.1-0.2h-0.1c-0.1,0-0.3,0.2-0.3,0.3c-0.1,0.2-0.3,0.4-0.4,0.5c-0.5,0.5-1.1,0.4-1.6,0.1
		c-0.3-0.2-0.5-0.4-0.8-0.7c-0.6-0.7-1.1-1.8-0.6-2.7c0.5-0.8,1.6-1.1,2.4-1.2c0.1,0,0.3,0,0.4,0c0.1,0,0.1,0,0.2,0
		c0.2,0,0.4,0,0.5,0.2s0,0.5-0.1,0.6c-0.3,0.4-0.6,0.7-1,1c-0.1,0.1-0.6,0.4-0.3,0.5c0.2,0.1,0.4,0,0.5-0.1c0.6-0.3,1-0.6,1.4-1.1
		c0.1-0.1,0.2-0.2,0.2-0.3c0.1-0.1,0.4-0.4,0.5-0.3c0.2,0.1,0.2,0.5,0.2,0.7c0,0.1,0,0.2,0,0.2c0,0.2,0.1,1.2,0.4,1.2
		c0.1,0,0.1-0.2,0.1-0.2c0-0.7-0.1-3.5,0.9-3.6c0.3,0,0.5,0.3,0.6,0.5c0.1,0.4,0.2,0.9,0.2,1.3C42,85.7,42.1,87.4,41.3,88
		 M34.9,80.8c0-0.2-0.2-0.4-0.3-0.5s-0.2-0.1-0.4-0.2c-1.3-0.4-1.1-1.5-0.5-2.3c0.4-0.5,1-0.9,1.2-1.5c0.2-0.4,0-0.9,0.1-1.3
		c0-0.1,0-0.1,0-0.2c0.1-0.5,0.6-0.7,1-0.8c0.4-0.1,0.7-0.2,1-0.3c0.6-0.2,1.1-0.8,1.5-0.9s0.8,0.1,0.1,0.9
		c-0.1,0.1-0.2,0.2-0.3,0.4c-0.5,0.7-0.9,1.4-1.6,2.1c-0.4,0.4-0.8,0.7-1.1,1.1c-0.2,0.2-0.7,0.8-0.7,1.1l0,0c0,0.1,0.1,0.1,0.1,0.1
		c0.1,0,0.2-0.1,0.3-0.1c0.2-0.2,0.4-0.5,0.6-0.6c0.2-0.2,0.4-0.4,0.6-0.5c0.1,0,0.4-0.3,0.4-0.2l0,0l0,0c0,0-0.1,0.4-0.1,0.5
		c-0.2,0.9-0.6,2.4-0.4,3.3c0.1,0.2,0.2,0,0.2-0.1c0.1-0.2,0.1-0.4,0.1-0.5c0.1-0.3,0.1-0.6,0.2-0.8c0-0.2,0.4-1.7,0.7-1.6
		c0.1,0.1,0.3,0.5,0.4,0.7c0.2,0.5,0.5,0.8,0.9,1.1c0,0,0.1,0.1,0.2,0.1c0.1-0.1-0.2-0.6-0.3-0.7c-1.2-1.8-0.8-3.6,0.3-5
		c0.1-0.1,0.1-0.2,0.2-0.2c0.9-1.1,1.7-1.1,1.3,0.4c0,0.1-0.1,0.2-0.1,0.3C40.4,75.2,40,76,40.1,77c0,0.4,0.1,0.8,0.3,1.1
		c0.4,1,1.1,2.4,0.1,3.3c-0.2,0.2-0.6,0.3-1,0.2c-0.3-0.1-0.5-0.3-0.8-0.3c-0.3-0.1-0.5,0.2-0.7,0.4c-0.2,0.2-0.3,0.5-0.5,0.6
		c-0.4,0.4-1,0.6-1.5,0.4c-0.6-0.2-0.9-0.8-1-1.4C35,81,35,80.9,34.9,80.8 M32.3,84.5c-0.5-0.2-0.6-0.9-0.4-1.3c0.2-0.5,0.6-1,1.2-1
		c0.4,0,0.6,0.2,0.8,0.5c0.2,0.2,0.2,0.5,0.2,0.7c-0.1,0.3-0.3,0.6-0.6,0.8S32.7,84.7,32.3,84.5 M29.5,78.3c0.1-0.1,0.4-0.2,0.5-0.1
		c0,0,0,0.1,0,0.2c-0.1,0.2-0.1,0.3-0.1,0.5c-0.1,0.4-0.1,1,0,1.4c0.1,0.3,0.3,0.3,0.3,0c0-0.6,0.1-0.9,0.3-1.4
		c0.1-0.2,0.2-0.4,0.3-0.5c0.2-0.2,0.4-0.5,0.6-0.6c0.1-0.1,0.3-0.1,0.5,0s0.2,0.3,0.2,0.4c0,0.3-0.1,0.5-0.2,0.8
		c-0.2,0.5-0.2,1-0.2,1.5c0,0.8-0.2,1.6-1.1,1.9c-0.2,0-0.3,0.1-0.5,0.1c-0.4,0-0.8,0-1-0.3c-0.1-0.2-0.2-0.4-0.3-0.6
		c-0.1-0.2-0.2-0.3-0.5-0.3c-0.1,0-0.2,0.1-0.3,0.1c-0.2,0.1-0.5,0.2-0.8,0.1c-0.5-0.1-0.9-0.6-1-1c-0.2-0.7-0.2-1.4,0.3-2
		c0.1-0.1,0.2-0.2,0.3-0.3c0.8-0.6,0.3-0.7,0.6-1.4c0-0.1,0.1-0.2,0.2-0.3c0.2-0.2,0.5-0.3,0.8-0.4c0.7-0.2,1.5-0.1,2,0.3
		c0.3,0.2,0.6,0.5,0.1,0.8c-1.2,0.7-1.7,0.7-2.6,1.9l-0.1,0.2c0.1,0.1,0.5-0.2,0.6-0.2c0,0,0,0,0.1-0.1
		C28.8,78.7,29.2,78.4,29.5,78.3 M32.4,67.6c0.2,0.1,0.4,0.2,0.5,0.4c0.2,0.1,0.4,0.4,0.4,0.6c-0.1,0.2-0.4,0.2-0.6,0.2
		c-0.5,0-1.1-0.1-1.6-0.2c-0.7-0.1-1.3-0.1-1.9,0.2c-0.6,0.3-1.6,0.6-2.1-0.1c-0.1-0.2-0.2-0.4-0.2-0.6s0-0.4,0-0.7
		c0.1-0.7-0.4-0.6-0.8-1.3C25.3,65,26,63,27.4,63c0.2,0,0.4,0.1,0.6,0.1c0.3,0.1,0.6,0.2,0.9,0.4c0.2,0.1,0.4,0.2,0.6,0.3
		s0.4,0.1,0.6,0s0.4-0.2,0.6-0.3c0.4-0.1,0.8,0.2,1.1,0.4c0.3,0.2,0.6,0.5,0.8,0.8c0.3,0.4,0.7,0.9,0.9,1.4c0.1,0.2,0.3,0.8,0.1,1
		c-0.1,0.1-0.1,0.1-0.2,0.1c-0.1,0-0.3,0-0.4,0c-0.4-0.2-0.7-0.7-0.9-1.1s-0.5-1.1-0.9-1.4c-0.1-0.1-0.2-0.2-0.2-0.1
		c-0.1,0.1,0,0.4,0,0.5c0.1,0.2,0.2,0.3,0.2,0.5c0.1,0.1,0.2,0.4,0.2,0.6c0,0.3-0.2,0.1-0.3,0.1c-0.5-0.2-0.9-0.4-1.4-0.6
		s-0.8-0.3-1.3-0.4c-0.1,0-0.6-0.1-0.7,0.1c0,0.1,0.1,0.2,0.2,0.3c0.7,0.2,1.2,0.4,1.8,0.8c0.3,0.2,0,0.3-0.2,0.4
		c-0.4,0.2-0.8,0.3-1.2,0.6c-0.1,0.1-0.4,0.2-0.3,0.3c0,0.1,0.5,0,0.6-0.1C30.2,67.1,31,67,32.4,67.6 M29.3,56.7
		c0.5-0.2,1-0.5,1.3-0.9c0.3-0.3,0.7-0.9,1.2-0.7c0.4,0.2,0.4,0.7,0.2,1c-0.5,1-1.6,1.4-2.6,1.8c-0.1,0-0.5,0.2-0.5,0.4
		c0,0.1,0.3,0.1,0.4,0.1c0.3-0.1,0.6-0.2,0.9-0.2c0.2-0.1,0.4,0,0.2,0.2c0,0.1-0.1,0.1-0.1,0.2c-0.1,0.2-0.3,0.5-0.4,0.8
		c-0.1,0.4-0.2,0.7-0.2,1.1c0,0.1,0,0.2,0.1,0.2s0.2-0.3,0.3-0.4c0.2-0.6,0.5-1.1,0.8-1.6c0.3-0.4,0.6-0.8,0.9-1.3
		c0.2-0.2,0.3-0.2,0.4,0.1s0.1,0.6,0.2,0.9c0,0.1,0.3,0.8,0.5,0.7c0.1,0,0.1-0.3,0.1-0.4c0-0.2,0-0.4-0.1-0.5
		c-0.1-0.3-0.1-0.6-0.1-0.9c0-0.3,0-0.6,0-1c0-0.2,0.2-0.9,0.4-0.9s0.5,0.7,0.5,0.9c0.2,0.6,0.3,1.3,0.3,2c0,0.3,0,0.6-0.1,0.9
		c-0.1,0.5-0.2,0.9-0.6,1.2c-0.3,0.2-0.6,0.3-0.9,0.3c-0.1,0-0.2-0.1-0.3-0.1c-0.2-0.1-0.3-0.3-0.5,0c0,0,0,0.1-0.1,0.1
		c-0.5,0.9-1,1.4-2.1,1.4c-1.3,0-2-1.2-1.4-2.3c0.1-0.2,0.4-0.6,0.3-0.8c0-0.1-0.2-0.2-0.2-0.3c-0.1-0.1-0.2-0.2-0.2-0.3
		c-0.1-0.1-0.1-0.2-0.1-0.3c-0.1-0.3,0-0.6,0.2-0.8C28.3,57,28.9,56.9,29.3,56.7 M28.6,53.5c0.2-0.6,1-0.8,1.5-0.6
		c0.6,0.3,0.8,1,0.3,1.5c-0.6,0.7-1.9,0.1-1.9-0.7C28.5,53.7,28.5,53.6,28.6,53.5 M31.5,52c0.1-0.3,0.2-0.4,0.4-0.6
		c0.3-0.2,0.5-0.3,0.5-0.6c0-0.2,0-0.4,0-0.6c0-0.2,0-0.4,0.1-0.5c0.2-1.2,1-1.7,2.2-1.1c0.3,0.1,0.3,0.2,0.6,0.1
		c0.4-0.1,0.6,0,0.8,0.3s0.3,0.7,0.2,1s-0.3,0.7-0.5,0.9c-0.4,0.6-1.2,1.2-1.5,0.2c-0.1-0.1-0.2-0.9-0.5-0.8c-0.1,0-0.1,0.3-0.1,0.4
		c0,0.5,0,1,0,1.5c0,0,0,0,0,0.1c0,0.3,0,0.7-0.3,0.9c-0.5,0.4-1.3,0.4-1.8-0.1C31.5,52.7,31.5,52.3,31.5,52 M38.3,53
		c0,0.1,0.1,0.2,0.1,0.3s0.1,0.2,0.2,0.3h0.1c0.1,0,0.2,0,0.3,0c0.4,0.1,0.8,0.2,0.8,0.6c0,0.1,0,0.2,0,0.3c0,0.3,0,0.6-0.1,0.8
		c-0.2,0.5-0.5,1.2-1.1,1.4c-0.5,0.2-0.9-0.5-1.1-0.8c-0.1-0.3-0.2-0.7-0.3-1.1c0-0.2-0.1-0.4-0.2-0.6c0-0.1-0.1-0.2-0.2-0.2
		c-0.1,0-0.1,0.2-0.1,0.2c0,0.2,0,0.5,0,0.7c0,0.5,0.2,1.1,0.3,1.6c0,0.1,0.1,0.2,0.1,0.3c0.1,0.2,0.2,0.5,0.1,0.6
		c-0.1,0.1-0.3,0.1-0.4,0.1c-0.1,0-0.2,0-0.3,0s-0.4,0-0.4,0.2c0,0.1,0.1,0.2,0.2,0.2c0.1,0,0.1,0,0.2,0.1c0.7,0.2,1.5,0.3,2,0.8
		s0.8,1.2,0,1.6c-0.2,0.1-0.5,0.1-0.7,0.1c-0.6-0.1-1-0.4-1.4-0.8c-0.3-0.3-0.6-0.7-0.8-1.1c-0.1-0.2-0.3-0.5-0.4-0.7
		c-0.1-0.4,0.2-0.8,0.4-1c0.4-0.4,0.1-1.1-0.1-1.5c-0.4-0.8-0.5-1.8,0-2.5c0.2-0.3,0.6-0.6,0.9-0.7c0.3-0.2,0.7-0.2,1-0.1
		C37.9,52.3,38.2,52.6,38.3,53 M37.8,45.9c0.5-0.3,1.1-0.3,1.6,0c0.1,0,0.2,0.1,0.3,0.1c0.2,0.1,0.5,0.2,0.7,0.2s0.4-0.1,0.5-0.1
		s0.2,0,0.3,0s0.2,0,0.2,0c0.3,0,0.6,0.1,0.8,0.2c0.6,0.4,0.7,1.2,0.5,1.9c0,0.1-0.1,0.2-0.2,0.3c-0.3,0.5-0.7,0.7-1.2,0.9
		c-0.1,0-0.1,0-0.2,0c-0.3,0-0.6,0.1-0.8-0.1c-0.1-0.1-0.1-0.2-0.1-0.3c-0.1-0.6,0.3-1,0.6-1.5c0-0.1,0.2-0.3,0.1-0.4h-0.2
		c-0.4,0.2-0.6,0.6-0.9,0.9c-0.1,0.1-0.1,0-0.2-0.1c-0.1-0.2-0.2-0.3-0.4-0.5c-0.1-0.2-0.3-0.4-0.5-0.5c0,0-0.2-0.2-0.3-0.1
		c0,0,0,0.2,0.1,0.3c0,0.1,0.1,0.2,0.1,0.2c0,0.1,0.1,0.1,0.1,0.2c0.1,0.1,0.1,0.2,0.2,0.3c0.2,0.4,0.2,0.7,0.3,1.1
		c0.1,0.5-0.3,0.9-0.8,0.9c-0.1,0-0.1,0-0.2,0c-0.1,0-0.1,0-0.2,0c-0.5-0.2-0.6-0.7-0.6-1.2c0-0.1,0-0.2,0-0.4c0-0.3-0.2-0.7-0.4-1
		c-0.1-0.2-0.1-0.5,0-0.8C37.4,46.3,37.6,46.1,37.8,45.9 M47.3,51.1c0.1,0,0.2,0.1,0.2,0.2c0.4,0.4,0.3,1.2,0.1,1.7
		c-0.2,0.4-0.4,0.9-0.7,1.2c-0.2,0.2-0.5,0.4-0.8,0.4c-0.6-0.1-0.8-0.9-0.8-1.4c-0.1-0.4-0.1-0.9-0.1-1.3c0-0.1,0-0.3,0-0.4
		c0-0.2,0-0.4,0-0.6c0-0.7-0.3-0.3-0.4,0c0,0.2-0.1,0.4-0.1,0.6c-0.2,0.8-0.1,1.8-1,2.1c-0.4,0.1-0.8,0-1.2-0.2
		c-0.4-0.4-0.6-0.9-0.6-1.5s0.6-0.8,1.1-1.1c0.2-0.1,0.5-0.2,0.6-0.4s0-0.4,0-0.5c-0.1-0.5,0-1,0.3-1.4c0.3-0.3,0.7-0.5,1.1-0.6
		c0.5-0.1,1,0,1.4,0.3c0.5,0.4,0.6,1,0.5,1.5C46.8,50.5,46.7,50.6,47.3,51.1 M51.6,47.8c-0.3,0-0.5-0.4-0.6-0.7
		c0-0.1-0.1-0.3-0.1-0.4c-0.2-0.7-0.4-1.4-0.5-2.2c-0.1-1-0.2-1.8-0.4-2.7c-0.1-0.2-0.1-0.3-0.2-0.3c-0.2,0-0.2,0.8-0.1,1.2
		c0,0.3,0,0.6,0,0.9c0,0.1,0,0.5-0.1,0.5l0,0l0,0c-0.1,0-0.3-0.3-0.3-0.4c-0.6-0.7-1.1-1.5-1.8-2.1c-0.1-0.1-0.7-0.6-0.8-0.4
		c-0.1,0.1,0.1,0.3,0.1,0.4c0.1,0.1,0.2,0.2,0.2,0.3c0.3,0.3,0.5,0.6,0.7,0.9c0.1,0.1,0.8,1,0.5,1.1c-0.1,0-0.6-0.1-0.8-0.1
		c-0.5-0.1-1-0.1-1.6,0c-0.1,0-0.2,0-0.2,0.1c0,0.2,0.7,0.2,0.8,0.2c1.4,0.1,2.7,0.9,3.5,2.1c0.3,0.4,0.9,1.5,0.2,1.9
		c-0.4,0.2-0.8,0.1-1.1-0.2c-0.2-0.2-0.4-0.4-0.6-0.6c-0.2-0.3-0.5-0.8-0.8-0.9c-0.4-0.2-0.7-0.3-1.2-0.3c-0.7,0-1.4-0.2-1.8-0.8
		c-0.1-0.2-0.2-0.3-0.3-0.5c-0.2-0.8-0.1-1.5,0.7-1.9c0.1,0,0.1-0.1,0.2-0.1c0.2-0.3-0.1-0.9-0.1-1.2C45,41.4,45,41.2,45,41
		c-0.1-0.3,0-0.6,0.1-0.9c0.2-0.4,0.5-0.7,1-0.8s1,0,1.5,0.3c0.1,0.1,0.2,0.2,0.3,0.2c0,0.2,0.1,0.2,0.3,0.2c0.1,0,0.2,0,0.3,0
		s0.2-0.1,0.4-0.2c0.2-0.1,0.2-0.3,0.5-0.4c0.4-0.1,0.9,0.3,1.2,0.6c0.5,0.6,0.5,1,0.6,1.8c0,0.2,0.1,0.5,0.2,0.7
		c0.1,0.2,0.3,0.4,0.5,0.5c0.3,0.2,0.6,0.4,0.8,0.7c0.3,0.5,0.1,1-0.1,1.5c-0.1,0.2-0.2,0.5-0.3,0.8C52.2,46.3,52.4,47.7,51.6,47.8
		 M48.4,36.2c0.7-0.9,2.5,0.7,1.6,1.7l0,0l0,0c-0.5,0.3-1,0.4-1.5,0c-0.2-0.2-0.4-0.4-0.4-0.7C48.1,36.8,48.2,36.5,48.4,36.2
		 M52.6,32.7c0.7-0.3,1.8-0.4,2.3,0.3c0.2,0.3,0.3,0.7,0.1,1c-0.2,0.4-0.6,0.7-1,0.5c-0.1-0.1-0.5-0.2-0.7-0.1
		c-0.2,0.2,0.2,0.7,0.3,0.8c0.2,0.3,0.3,0.6,0.3,0.9c0.1,0.7-0.1,1.5-0.8,1.9c-0.2,0.1-0.5,0.2-0.8,0.1c-0.8-0.1-0.8-0.9-0.8-1.6
		c0-0.4-0.3-0.9-0.4-1.3C51,35,51,34.8,51,34.6c0-0.4,0.1-0.7,0.3-1C51.6,33.3,52.1,32.9,52.6,32.7 M56.4,29.3
		c0.8-0.6,1.7-0.5,2.6-0.3c0.3,0.1,0.8,0.2,0.9-0.1c0,0,0-0.3,0-0.4c0.1-0.3,0.3-0.3,0.6-0.4c0.9-0.1,1.5,0.3,2,0.9
		c0.4,0.5,0.4,0.8,0.6,1.4c0.1,0.5,0.3,0.7,0.7,1c0.1,0.1,0.2,0.1,0.2,0.2c0.4,0.3,0.8,0.7,1,1.2c0.2,0.6,0.2,1.5-0.5,1.8
		c-0.7,0.2-1.4-0.5-1.7-1c-0.5-0.8-0.9-2-1.1-3c0-0.1-0.1-0.3-0.1-0.4l-0.1-0.1c-0.1,0-0.2,0.3-0.2,0.3c0,0.1,0,0.3,0,0.4
		c0,0.2,0,0.5,0,0.7c0,0.4-0.1,0.4-0.3,0.2c-0.4-0.3-0.9-0.7-1.4-1c-0.3-0.1-0.5-0.2-0.8-0.3c-0.1,0-0.5-0.1-0.6,0
		c0,0.1,0.1,0.3,0.2,0.3c0.4,0.2,0.8,0.5,1.2,0.7c0.3,0.2,0.6,0.4,0.8,0.7c0.1,0.2,0.2,0.4,0.1,0.6c-0.2,0.5-0.9,0.5-1.3,0.5
		c-0.1,0-0.3,0-0.4,0c-0.3,0-0.6,0-0.9-0.1c-0.2,0-0.4,0-0.6-0.1c-0.2-0.1-0.5-0.2-0.5-0.5c0-0.2,0.2-0.4,0.4-0.4l0.2-0.1
		c0,0,0.1-0.1,0.1-0.2c-0.1-0.3-0.9-0.2-1.2-0.3c-0.2-0.1-0.4-0.2-0.6-0.3c-0.1-0.1-0.2-0.3-0.2-0.4C55.3,30.5,56,29.7,56.4,29.3
		 M65.9,27.2c0.2,0,0.4,0,0.6,0c0.1,0,0.3,0,0.4-0.1s0.2-0.2,0.3-0.4c0-0.1,0-0.2,0-0.3l0,0l0,0c0-0.1,0-0.2,0.1-0.3
		c0.1-0.2,0.2-0.4,0.4-0.6c0.4-0.3,1-0.2,1.5,0c0.7,0.3,1.3,0.9,1.7,1.6c0.3,0.5,0.6,1.1,0.6,1.7c0,0.4,0,1.1-0.2,1.4
		c-0.2,0.4-0.7,0.6-1.2,0.5c-0.7-0.1-1.1-0.6-1-1.3c0-0.2,0.1-0.5,0.1-0.8c0-0.1,0-0.3-0.1-0.3c-0.4-0.1-0.8,1.2-0.9,1.4
		c-0.4,0.7-0.9,0.1-1.1-0.4c-0.1-0.2-0.3-0.5-0.5-0.7c-0.1-0.1-0.1-0.1-0.2-0.2c0,0-0.1-0.1-0.2,0s0,0.4,0,0.5s0.1,0.3,0.1,0.4
		c0.2,0.6,0.7,1.9,0,2.3c-0.4,0.2-0.8,0.1-1.1-0.1c-0.3-0.2-0.5-0.6-0.4-0.9v-0.1c0.3-0.6-0.3-1-0.5-1.5
		C64.3,27.7,65,27.3,65.9,27.2 M72.3,24.5c0.1-0.1,0.3-0.1,0.4,0c0.4,0.1,0.6,0.6,0.7,1c0.1,0.5-0.1,1.1-0.7,1.3l0,0l0,0
		c-0.6,0-1.1-0.3-1.3-0.8c-0.1-0.3,0-0.6,0.1-0.8C71.7,24.8,72,24.6,72.3,24.5 M74,28.2c0.1-0.9,0.2-1.6,0.6-2.4
		c0.3-0.5,0.6-1,1.2-1.3s1.3-0.4,1.8-0.1c0.7,0.4,0.8,1.3,0.7,2.1c0,0.2,0,0.4,0,0.6c0,0.1,0,0.2,0.1,0.3c0.1,0.1,0.2,0.1,0.3,0.1
		c0.2,0,0.3,0.1,0.5,0.2c0.3,0.1,0.4,0.3,0.5,0.6c0.2,0.5,0.1,1.1-0.2,1.6c-0.4,0.8-0.9,1.1-1.5,1.7c-0.2,0.1-0.3,0.3-0.4,0.4
		c-0.2,0.2-0.4,0.5-0.5,0.8c-0.1,0.2-0.4,0.7-0.7,0.8c-0.3,0-0.5-0.1-0.6-0.3c-0.2-0.6,0-1.3,0.3-1.9s0.7-1.2,1.3-1.6
		c0.1-0.1,0.2-0.1,0.3-0.2c0.1-0.1,0.2-0.2,0.1-0.3c-0.2-0.3-1.1,0.4-1.3,0.6c-0.1,0-0.2,0.2-0.3,0c-0.1-0.1,0.1-1.2,0.1-1.4
		c0-0.3,0-0.7,0-1c0-0.1-0.1-0.3-0.2-0.3s-0.2,0.3-0.2,0.4c-0.3,1.3-0.5,2.6-1,3.9c0,0.1-0.1,0.2-0.1,0.3c-0.1,0.3-0.3,0.5-0.6,0.5
		c-0.4,0.1-0.7-0.2-0.9-0.5c-0.3-0.4-0.4-0.9-0.3-1.4c0-0.3,0.1-0.7,0.5-0.8C73.9,29.3,73.9,28.7,74,28.2 M80.6,33.4
		c0.1,0,0.4-0.3,0.5-0.4c0.5-0.5,1-0.7,1.7-0.5c0.2,0.1,0.4,0.2,0.6,0.3s0.3,0.3,0.4,0.5c0.3,0.4,0.2,1.1,0.1,1.6
		c-0.1,0.3-0.2,0.5-0.3,0.8c-0.2,0.6-0.3,0.7,0.2,1.2c0.1,0.1,0.2,0.3,0.3,0.5c0.2,0.8-0.4,1.7-1.1,2c-0.3,0.2-0.6,0.2-0.9,0.2
		s-0.5,0-0.8,0s-0.5,0-0.8,0.1S80,40,79.8,40.1c-0.5,0.3-0.8,0.5-1.3,0.6c-0.4,0.1-0.8,0.1-1.1,0c-0.2-0.1-0.5-0.2-0.6-0.5
		c-0.2-0.5,0.3-0.9,0.6-1.2l0.1-0.1c0.1,0,0.1-0.1,0.2-0.1c1.1-0.6,2.6-0.9,3.8-0.9c0.1,0,0.5,0,0.5-0.2v-0.1
		c-0.1-0.1-0.2-0.1-0.3-0.1c-0.4-0.1-0.8-0.2-1.2-0.2c-0.4,0-0.4-0.1-0.1-0.3c0.2-0.2,0.5-0.4,0.7-0.6c0.2-0.2,0.5-0.4,0.7-0.7
		c0.1-0.1,0.1-0.2,0.2-0.3c0.4-0.6,0.2-0.9-0.5-0.2c-0.3,0.2-0.5,0.5-0.8,0.7c-0.2,0.2-0.4,0.4-0.7,0.5c-0.2,0.2-0.5,0.3-0.7,0.5
		c-0.3,0.2-0.9,0.4-1.1,0c-0.2-0.6,0-1.4,0.2-2c0.2-0.5,0.5-1.2,0.9-1.6c0.2-0.2,0.5-0.2,0.7-0.2c0.1,0,0.2,0.1,0.3,0.2
		C80.2,33.3,80.4,33.4,80.6,33.4 M80.8,29.2c0.1-0.3,0.3-0.5,0.6-0.6c0.4-0.3,0.8-0.4,1.2-0.4c0.4,0,0.8,0,1.2,0.2
		c0.4,0.2,0.8,0.5,1.1,0.8c0.2,0.3,0.4,0.6,0.4,1c0.1,0.4,0,0.7-0.1,1c0,0.1-0.1,0.2-0.2,0.2c-0.2,0.4-0.7,0.6-1,0.6
		c-0.2,0-0.5-0.1-0.8-0.2c-0.5-0.3-0.3-0.7-0.2-1.2c0-0.2,0-0.3-0.1-0.4c-0.2-0.1-0.4,0.2-0.6,0.4c-0.3,0.3-0.6,0.6-1,0.6
		c-0.2,0-0.4-0.1-0.5-0.2C80.2,30.5,80.5,29.8,80.8,29.2 M86.9,30.2c0.3-0.2,0.6-0.4,0.9-0.5c0.8-0.1,1.4,0.1,1.9,0.6
		c0.8,0.9,0.7,1.8,0.4,2.9C90,33.6,90,33.9,90.6,34c0.3,0,0.4,0.3,0.4,0.8c0,1.6-1.3,2.4-2.5,3c-0.5,0.2-0.8,0.4-1.6,1
		c-0.1,0.1-0.3,0.2-0.4,0.2c-0.3,0-0.5,0-0.7-0.1c-0.3-0.2-0.5-0.7-0.4-1.1c0-0.7,0.7-1.1,1.3-1.3c0.2,0,0.4-0.1,0.6-0.1
		c0.3,0,1.4-0.2,1.8-0.5s0.1-0.4-0.3-0.4s-1.2,0.3-1.4,0.1c-0.3-0.2-0.1-0.4,0-0.7c0.2-0.3,0.3-0.6,0.4-0.8s0.2-0.4,0.3-0.6
		c0-0.1,0.3-0.9,0.1-1.1c0-0.1-0.1-0.1-0.2,0s-0.2,0.3-0.4,0.6c-0.1,0.2-0.3,0.5-0.4,0.8c-0.6,1.1-1.6,1.6-1.6-0.1
		C85.7,32.6,85.9,31,86.9,30.2 M93,36.6c0.2,0.1,0.3,0.2,0.4,0.3s0.1,0.2,0.2,0.2c0.2,0.1,0.6-0.2,0.7-0.3c0.9-0.7,2-0.3,2.6,0.5
		c0.5,0.6,0.7,1.3,0.3,2c-0.1,0.2-0.2,0.3-0.1,0.5s0.3,0.4,0.4,0.5c0.3,0.4,0.3,1.1-0.1,1.5c-0.8,0.7-1.7,0.5-2.6,0
		c-0.8-0.4-1.4-0.9-1-1.6c0.3-0.5,1-0.7,1.4-1.1c0.3-0.4,0.1-0.5-0.9-0.1c-0.2,0.1-0.4,0.2-0.6,0.4s-0.5,0.3-0.7,0.5
		c-0.1,0.1-0.2,0.2-0.4,0.1c-0.1,0-0.1-0.1-0.1-0.2c0-0.1,0-0.2,0-0.3c0-0.2,0-0.3,0-0.5c0-0.1,0-0.9-0.3-0.9
		c-0.1,0-0.1,0.1-0.1,0.2c-0.1,0.6-0.2,0.9-0.4,1.5c-0.3,0.6-0.8,1.1-1.5,1c-0.1,0-0.2-0.1-0.3-0.1c-0.3-0.3-0.2-1-0.1-1.4
		s0.2-0.8,0.4-1.2C90.8,37.3,92.1,36.1,93,36.6 M97.9,43.5c0.1,0,0.3,0.1,0.4,0.1c0.3,0,0.6-0.2,0.8-0.5c0.1-0.2,0.3-0.3,0.4-0.4
		c0.2-0.2,0.5-0.4,0.8-0.4c0.4,0,0.7,0.1,1,0.4c0.3,0.4,0.4,0.9,0.4,1.3c0,0.1,0,0.3,0,0.4c0,0.2,0.1,0.4,0.2,0.5s0.2,0.2,0.3,0.2
		c0.6,0.3,0.9,0.8,0.6,1.4c-0.1,0.4-0.3,0.7-0.6,1c-0.2,0.2-0.5,0.4-0.7,0.7c-0.1,0.1-0.3,0.3-0.3,0.5c-0.1,0.2-0.1,0.3-0.1,0.5
		c0,0.6-0.1,1-0.6,1.3c-0.2,0.2-0.5,0.3-0.8,0.4c-0.4,0.1-0.8,0.2-1.2,0.5c0,0-0.1,0-0.1,0.1c-0.3,0.1-0.7,0.4-1,0.1v-0.1
		c-0.1-0.2,0.1-0.5,0.2-0.6s0.1-0.2,0.2-0.3c0.5-0.6,0.7-0.9,1.3-1.4c0.4-0.4,0.8-0.7,1.2-1.1c0.1-0.1,0.2-0.2,0.3-0.4
		c0.4-0.5,0.4-0.9-0.3-0.4c-0.1,0.1-0.1,0.1-0.2,0.2c-0.1,0.1-0.3,0.2-0.4,0.3c-0.3,0.2-0.7,0.4-0.3-0.5c0.1-0.2,0.5-1.1,0.7-1.9
		c0.3-0.8,0-1.7-0.5-0.3c-0.2,0.7-0.7,2-1,2l0,0c-0.1-0.1-0.2-0.5-0.3-0.7c-0.1-0.3-0.2-0.6-0.4-0.8c-0.4-0.6-0.7-0.4-0.4,0.3
		c0.8,1.9,0.3,3.6-0.9,5.1c-0.1,0.2-0.3,0.3-0.5,0.3s-0.4-0.2-0.4-0.4c-0.1-0.4,0.1-0.8,0.2-1.2c0.3-0.6,0.4-1.2,0.3-1.9
		c-0.1-0.5-0.2-1.1-0.3-1.6C95.9,45,96.5,43.2,97.9,43.5 M105,54.5c0.3,0.3,0.6,0.8,0.6,1.3c0,0.7-0.4,1.2-0.9,1.5s-1,0.4-1.6,0.5
		c-0.2,0-0.8,0-0.9,0.3c-0.1,0.1-0.1,0.3-0.1,0.4c0.1,0.6-0.5,0.8-1,0.9c-0.9,0.2-2.9-0.5-3.5-1.2c-0.2-0.2-0.3-0.3-0.2-0.6
		c0.1-0.3,0.6-0.4,0.9-0.3c0.5,0.1,1.1,0.4,1.6,0.5c0.2,0,0.4,0.1,0.4,0c0.1-0.4-1.2-0.8-1.4-0.9c-0.3-0.2-0.5-0.4-0.2-0.6
		c0.3-0.3,1.3-0.4,1.5-0.4c1.1-0.1,2-0.2,3.2-0.1h0.1c0.5,0.1,0.4-0.2,0.1-0.4c-0.8-0.4-2.3-0.2-2.9-0.2h-0.1
		c-0.2-0.2,0.5-0.9,0.6-1.2c0,0,0.1-0.1,0-0.2c0-0.1-0.1-0.1-0.2-0.1c-0.2,0.1-0.8,0.8-1.1,1c-0.5,0.5-1.2,0.7-1.9,1
		c-3.1,1.3-3.1-0.7-0.3-1.5c0.2-0.1,0.4-0.2,0.5-0.3c0.2-0.1,0.4-0.3,0.6-0.5c0.3-0.3,0.5-0.6,0.7-0.8c0.5-0.4,1-0.7,1.8-0.8
		c0.4,0,1.1,0.1,1.4,0.5c0.2,0.3,0.2,0.6,0.1,0.9c-0.1,0.2,0.2,0.3,0.3,0.3c0.2,0,0.4,0.1,0.6,0.1C104,53.8,104.5,54.1,105,54.5
		 M104.7,47.3c0.4,0.3,0.3,0.9,0.1,1.3c-0.4,0.8-1.5,1-1.9,0c-0.1-0.2-0.1-0.5,0-0.7c0.1-0.3,0.4-0.5,0.6-0.6
		C103.9,47.2,104.4,47.1,104.7,47.3 M108.4,48.9c0.6,0.6,0.6,1.1,0.5,1.6c-0.1,1.4,0.2,0.9,1.3,1.7c0.7,0.6,1,1.6,0.5,2.5
		c-0.1,0.2-0.3,0.4-0.5,0.6c-0.5,0.5-1.2,0.7-1.9,0.6c-0.8-0.1-1.5-0.6-2-1.3c0-0.1-0.1-0.1-0.1-0.2c-0.1-0.2-0.3-0.6,0-0.8
		c0.5-0.2,1.4,0.2,1.9,0.4c0.1,0,0.6,0.4,0.6,0.1c0-0.2-0.2-0.4-0.3-0.5c-0.6-0.5-1.2-0.6-2-0.9c-0.2-0.1-0.8-0.2-0.8-0.5
		c0-0.1,0.2-0.3,0.3-0.3c0.1,0,0.1-0.1,0.2-0.1c0.3-0.1,1.5-0.8,1.3-1.2c0-0.1-0.2,0-0.3,0c-0.2,0.1-0.4,0.2-0.7,0.3
		c-0.3,0.1-0.6,0.3-0.9,0.4c-0.1,0.1-0.3,0.1-0.4,0.1c-0.5,0.2-1.2,0.3-1.5-0.3c-0.1-0.3,0-0.6,0.2-0.8c0-0.1,0.1-0.1,0.1-0.2
		c0.1-0.1,0.2-0.2,0.3-0.3C105.1,49,107.2,47.8,108.4,48.9 M113.5,52.1c0.2,0.4,0.3,0.9,0.2,1.6c0,0.2-0.1,0.4-0.1,0.6
		c-0.1,0.3-0.2,0.6-0.5,0.8c-0.9,0.8-1.4-0.1-1.4-0.9c0-0.4,0-0.8,0.3-0.8c0.1,0,0.3,0,0.5,0.1c0.5,0.1,0.3-0.2,0-0.4
		c-0.6-0.4-0.9-0.4-1.4-0.9c-0.1-0.1-0.2-0.2-0.3-0.3c-0.1-0.2-0.2-0.4-0.2-0.6c0-0.5,0.3-0.7,0.8-0.7
		C112.4,50.5,113,51.2,113.5,52.1 M98.9,62.4c-0.8-1.2,0.5-2.4,1.7-1.5c0.1,0.1,0.2,0.2,0.2,0.4c0.1,0.4-0.2,0.8-0.5,1.1
		C99.9,62.7,99.3,62.8,98.9,62.4L98.9,62.4L98.9,62.4z M96.7,72c0.1,0,0.1,0,0.2,0c1.3,0.3,2.3,1.6,1.3,2.7
		c-0.3,0.4-0.8,0.6-1.4,0.6c-0.2,0-0.4,0-0.5,0c-0.2,0-0.5,0-0.7-0.1c-0.3-0.1-0.5-0.1-0.7-0.2s-0.4-0.1-0.7-0.1
		c-0.3,0-0.4,0.2-0.6,0.5c-0.2,0.4-1,0.2-1.3,0.1c-0.5-0.2-1.1-0.5-1.4-0.9c-0.4-0.4,0-0.7,0.5-0.8c0.6-0.2,1.5-0.3,2.2-0.3
		s1.3,0.1,2,0.3h0.1c0.1,0,0.1,0,0.2,0.1c0.1,0,0.1,0,0.2,0c0.3,0,0.3-0.2,0.1-0.4c-0.3-0.3-0.9-0.4-1.3-0.4c-0.1,0-0.2,0-0.3,0
		c-0.3,0-0.4-0.1-0.3-0.3c0.1-0.2,0.7-0.7,0.7-0.9c0-0.1-0.1-0.2-0.3-0.1c-0.2,0.1-0.4,0.2-0.6,0.4c-0.4,0.3-0.9,0.6-1.5,0.6
		c-0.3,0-0.4,0-0.3-0.3c0.1-0.2,0.6-1,0.3-1.1c-0.1,0-0.1,0-0.3,0.2c-0.3,0.5-0.6,0.9-1.1,1.3C91,73,90.7,73.2,90.4,73
		c-0.2-0.1-0.2-0.3-0.1-0.6c0.4-0.8,1.4-2.3,2.4-2.3c0.7,0,0.6,0.4,0.8,0.4c0.1,0,0.1,0,0.2,0c0.3,0,0.6-0.2,1.3-0.3
		c0.5-0.1,0.9,0,1.2,0.2c0.2,0.2,0.3,0.3,0.3,0.6c0,0.2,0,0.3,0,0.5c0,0.1,0,0.2,0,0.2C96.6,71.9,96.7,72,96.7,72 M84.3,63.8
		c-0.1,0-0.2-0.1-0.3-0.1c-0.2-0.1-0.3-0.2-0.5-0.3c-0.1,0-0.2-0.1-0.3-0.1c-0.1,0-0.2,0-0.3,0.1c-0.7,0.4-1.4,1-2.3,1
		s-1.6-0.5-1.8-1.3c-0.1-0.4-0.1-0.8,0.2-1.2c0.1-0.2,0.3-0.4,0.5-0.5c0.1-0.1,0.5-0.3,0.5-0.5c0-0.1,0-0.2-0.1-0.2
		c-0.1-0.1-0.1-0.2-0.2-0.2c-0.1-0.1-0.2-0.2-0.2-0.4c-0.1-0.2-0.1-0.3-0.1-0.5c0-0.5,0.4-0.9,1-0.9c0.2,0,0.4,0,0.6,0
		c1,0.2,1.3,0.7,2.4,0.2c0.5-0.2,1.2-0.5,1.7-0.1c0.3,0.3,0.2,0.7-0.1,0.9c-0.8,0.7-2.4,0.5-3.4,0.5c-0.1,0-0.6,0-0.6,0.1
		s0.1,0.1,0.2,0.1s0.2,0.1,0.3,0.1c0.2,0,1.1,0.2,1.2,0.3s0,0.2-0.1,0.2s-0.1,0.1-0.2,0.2c-0.2,0.1-0.4,0.3-0.5,0.4
		c-0.3,0.3-0.7,0.6-0.8,1v0.1c0.2,0.2,0.5-0.1,0.7-0.2c0.3-0.3,0.7-0.7,1.1-0.9c0.4-0.3,0.8-0.5,1.3-0.7c0.2-0.1,0.4-0.2,0.6,0
		s0.1,0.8,0.1,1s0.1,0.8,0.3,0.8c0.1,0,0.2-0.2,0.2-0.3c0-0.2,0.1-0.3,0.1-0.5c0-0.5,0.2-1.2,0.4-1.7c0.1-0.2,0.4-0.8,0.7-0.7
		c0.4,0.1,0.4,1,0.4,1.4c0,0.8-0.2,1.5-0.6,2.2c-0.1,0.1-0.1,0.2-0.2,0.3s-0.2,0.2-0.4,0.3C85.2,64,84.8,64,84.3,63.8 M79.4,47.3
		c0.3-0.2,0.9-0.3,1.2,0c0.2,0.2,0.2,0.8,0,1.1c-0.1,0.2-0.2,0.4-0.4,0.6c-0.2,0.1-0.5,0.1-0.7,0.1C78.6,48.8,78.7,47.8,79.4,47.3
		 M87.9,59.7c0.2-0.6,1.2-0.3,1.6-0.2C91,59.8,91.3,60,92,61c0.1,0.2,0.6,1.1,0.7,1c0.2,0-0.2-1-0.2-1.2c0-0.1-0.1-0.5,0-0.6
		s0.5,0.1,0.6,0.1c0.4,0.2,0.8,0.3,1.1,0.5c0.1,0,1.1,0.5,1.2,0.3c0-0.1-0.8-0.6-0.9-0.7c-0.2-0.1-0.5-0.2-0.7-0.3
		c0,0-0.1,0-0.2-0.1c-0.2-0.1-0.4-0.3,0-0.5c0.1-0.1,0.3-0.1,0.4-0.2c0.1-0.1,0.6-0.4,0.6-0.5c-0.1-0.1-0.6,0.1-0.7,0.2
		c-0.6,0.3-1,0.5-1.7,0.4c-0.2,0-0.5-0.1-0.7-0.2c-0.3-0.1-0.4-0.2-0.1-0.5c0.2-0.2,0.3-0.3,0.4-0.6c0.2-0.3,0.4-0.6,0.3-0.7
		c-0.1-0.1-0.6,0.4-0.8,0.5c-0.2,0.2-0.4,0.4-0.6,0.5c-0.4,0.3-1.1,0.4-1.6,0.3c-0.1,0-0.3,0-0.4,0c-0.2-0.1-0.3-0.1-0.3-0.4
		c0-0.4,0.7-0.7,1-0.8c0.2-0.1,0.4-0.2,0.6-0.3c0.8-0.5,1.6-1.4,2.6-0.7c0.2,0.1,0.4,0.3,0.6,0.5c0.2,0.3,0.5,0.4,0.8,0.5
		c0.5,0,1.5,0,1.9,0.4c0.3,0.3,0.3,0.8,0.2,1.1c0,0.2,0.1,0.3,0.3,0.4c0.1,0.1,0.3,0.3,0.5,0.4c0.3,0.3,0.6,0.7,0.7,1.2
		c0.1,0.7-0.2,1.5-0.8,1.8c-0.5,0.3-1.1,0.2-1.7,0c-0.1,0-0.2-0.1-0.4-0.1c-0.3-0.1-0.6-0.1-0.8,0.2c-0.5,0.6-1.1,0.5-1.7,0.2
		c-0.2-0.1-0.3-0.2-0.4-0.3c-0.4-0.3-0.6-0.6-0.9-1c-0.2-0.4-0.5-0.7-0.9-0.9c-0.2-0.2-0.5-0.3-0.7-0.4c-0.2-0.1-0.5-0.2-0.7-0.3
		C88.2,60.4,87.7,60.1,87.9,59.7 M88.4,52.4c0.1-0.1,0.1-0.3,0.2-0.7c0.1-0.5,0.6-0.9,1.1-1.1c0.2,0,0.3-0.1,0.5,0
		c0.2,0,0.4,0.1,0.5,0.2c0.1,0,0.2,0.1,0.3,0.2c0.1,0.1,0.3,0,0.4,0s0.2-0.1,0.3-0.1c0.9-0.4,1.9-0.7,2.7,0c0.2,0.2,0.3,0.4,0.4,0.7
		c0.1,0.6-0.2,1-0.6,1.4c-0.1,0-0.1,0.1-0.2,0.2c-0.4,0.5,0.1,0.5,0.3,1c0.1,0.1,0.1,0.3,0,0.5c-0.1,0.5-0.8,0.9-1.3,0.8
		c-0.4-0.1-0.7-0.2-1-0.2c-0.9-0.1-1.7,0.5-2,0.1c-0.1-0.1,0-0.3,0.1-0.5c0.5-0.9,1.5-1.3,2.3-1.9c0.1-0.1,0.4-0.3,0.3-0.5
		c0-0.1-0.1-0.1-0.2-0.1c-0.7,0-1.5,0.7-2.1,1.1c-0.1,0-0.1,0.1-0.2,0.1c-0.5,0.3-0.1-1.1-0.2-1.4l-0.1-0.1c-0.1,0-0.3,0.4-0.3,0.5
		c-0.1,0.2-0.1,0.4-0.1,0.6c-0.2,0.9-0.2,1.9-1,2.5c-0.2,0.1-0.4,0.2-0.6,0.2c-0.1,0-0.3,0-0.4-0.1c-0.2-0.2-0.3-0.4-0.3-0.6
		c-0.1-0.9,0.5-1.6,1.1-2.3C88.2,52.7,88.3,52.6,88.4,52.4 M87.4,57.2c0.1,0.4-0.2,0.9-0.6,1.1c-0.8,0.4-1.7-0.1-1.5-1
		c0.1-0.2,0.2-0.4,0.4-0.6c0.2-0.1,0.6-0.2,0.8-0.1C86.8,56.6,87.3,56.9,87.4,57.2 M85.3,52c-0.1-0.1-0.3,0.2-0.3,0.2
		c-0.3,0.3-0.6,0.7-0.9,1c-0.1,0.1-0.2,0.3-0.4,0.3c-0.1,0-0.1-0.7-0.1-0.8c0-0.8,0.1-1.3,0.1-2.2c0-0.7,0-1.1-0.3-1.1
		c-0.1,0-0.2,0.3-0.3,1.2c0,0.1,0,0.3,0,0.4c0,0.3,0,0.5-0.1,0.8c0,0.3-0.1,0.6-0.1,0.8c0,0.1-0.1,0.4-0.2,0.4s-0.3-0.3-0.4-0.4
		c-0.3-0.4-0.5-0.7-0.9-0.9c-0.1,0-0.2-0.1-0.3,0c-0.1,0.1,0.2,0.5,0.3,0.6c0.1,0.1,0.3,0.3,0.4,0.4c0.6,0.7,0.8,1.5,0.7,2.5
		c0,0.2,0,0.3,0,0.5s0,0.3-0.1,0.5s-0.2,0.5-0.4,0.7c-0.1,0.1-0.3,0.2-0.5,0.2C81,57,81,56.4,81,56c0-0.2,0-0.3,0-0.5
		c0.1-0.8-0.1-1.3-0.5-2c-0.1-0.1-0.2-0.2-0.2-0.3c-0.7-1-1.6-2.8,0.2-3.3c0.1,0,0.3-0.1,0.4-0.1s0.3,0,0.4,0c0.3,0,0.4-0.3,0.6-0.5
		c0.1-0.3,0.2-0.5,0.4-0.8c0.3-0.4,0.7-0.8,1.2-0.8c0.7-0.1,1.2,0.5,1.3,1.1c0,0.1,0.1,0.2,0.1,0.4c0.1,0.2,0.2,0.3,0.4,0.4
		c0.1,0,0.2,0,0.4,0.1c0.2,0,0.3,0.1,0.5,0.1c0.9,0.4,0.6,1.9,0.2,2.6c-0.3,0.4-0.6,0.8-0.7,1.3c0,0.2,0,0.5,0.1,0.7
		c0.3,1.2-1.2,1.7-1.8,2.5c-0.1,0.2-0.3,0.3-0.5,0.4c-0.1,0.1-0.3,0.1-0.4,0c-0.2-0.1-0.1-0.5-0.1-0.7c0-0.1,0.1-0.2,0.1-0.3
		c0.3-0.7,0.6-1.2,1-1.8s0.8-1.1,1.1-1.8C85.2,52.5,85.4,52.1,85.3,52 M92.8,47.4c-0.1-0.2-0.4-0.4-0.6-0.5s-0.4-0.3-0.6-0.4
		c0,0-0.1-0.1-0.1-0.2c0-0.1,0.2-0.3,0.3-0.3c0.3-0.2,0.6-0.4,0.9-0.7c0.1-0.1,0.5-0.6,0.4-0.7c-0.1-0.2-0.6,0.1-0.7,0.2
		c-0.3,0.2-0.6,0.4-0.9,0.6c-0.4,0.2-0.8,0.4-1.2,0c-0.4-0.4-0.3-1.5-0.1-2c0.2-0.6,1-1.9,1.7-1.1c0.2,0.2,0.3,0.5,0.6,0.6
		c0.2,0,0.3,0,0.5,0c0.3-0.1,0.6-0.2,0.9-0.1c0.5,0.1,0.8,0.5,1,0.9c0.4,0.6,0.4,1.7-0.2,2.1c-0.2,0.2-0.4,0.3-0.5,0.5
		c-0.3,0.6,0.1,0.7,0.2,1.3c0,0.1,0,0.2,0,0.3c0,0.8-0.8,1.2-1.7,1.2c-0.4,0-0.8-0.1-1.2-0.1c-0.7-0.1-1.1,1.5-3.7,0.2
		c-0.2-0.1-0.7-0.4-0.7-0.7c0.1-0.3,0.4-0.3,0.6-0.4c0.4,0,0.8,0.1,1.2,0.2c0.1,0,0.2,0.1,0.3,0.1c0.1,0,0.3,0.1,0.3,0s0-0.2,0-0.2
		c-0.1-0.1-0.2-0.2-0.3-0.3c-0.1-0.1-0.3-0.2-0.4-0.3c-0.2-0.2-0.1-0.3,0.1-0.4c1.1-0.4,2.4,0.2,3.5,0.6c0.1,0,0.2,0.1,0.3,0
		C92.8,47.5,92.8,47.4,92.8,47.4 M86.9,41.3c0.4,0,0.7,0,1.1,0.2c0.7,0.3,1.2,0.9,1.1,1.7c0,0.5-0.4,0.9-0.8,1.1
		c-0.1,0.1-0.3,0.1-0.4,0.2c-0.1,0-0.2,0.1-0.3,0.1c-0.6,0.4-0.2,0.6,0.1,1c0,0.1,0.1,0.1,0.1,0.2c0,0.1,0,0.3,0,0.4
		c-0.2,0.7-1.5,1-2.1,1c-0.6-0.1-1.1-0.3-1.6-0.5c-0.4-0.2-0.9-0.3-1.3-0.4c-0.3,0-0.6,0-0.9,0s-1,0-1.2-0.1s-0.2-0.3-0.1-0.4
		c0.1-0.2,0.5-0.5,0.8-0.6c0.4-0.1,0.7-0.2,1.1-0.2c0.7,0,1.5,0.1,2.2,0.3c0.2,0.1,0.4,0.2,0.6,0.3c0.1,0.1,0.5,0.3,0.6,0.2
		s0-0.2-0.1-0.3l0,0c-0.3-0.4-0.8-0.7-1.2-0.8c-0.1-0.1-0.4-0.2-0.5-0.3l0,0c0-0.2,0.6-0.4,0.7-0.4c0.4-0.1,0.7-0.2,1.1-0.2
		c0.3-0.1,0.7-0.1,1-0.1c0.1,0,0.3-0.1,0.3-0.2c0-0.1-0.2-0.2-0.3-0.2c-0.9-0.2-1.9,0.1-2.8,0.4c-0.2,0.1-0.4,0.1-0.6,0.2
		c-0.1,0-0.3,0-0.4,0c-0.2-0.1,0.1-0.4,0.2-0.4c0.3-0.4,0.6-0.7,1-1c0.1-0.1,0.3-0.3,0.2-0.4c0-0.1-0.1-0.1-0.2-0.1
		s-0.3,0.1-0.4,0.2c-0.6,0.4-1,0.8-1.4,1.3c-0.2,0.3-0.5,0.5-0.7,0.8c-0.2,0.2-0.5,0.4-0.8,0.6c-0.3,0.2-0.6,0.3-0.9,0.3
		c-0.5,0-0.6-0.4-0.7-0.8c-0.2-1.1,2.2-3.4,2.7-2.6c0,0.1,0.1,0.1,0.2,0.1h0.1c0.1,0,0.2,0,0.3-0.1c0.1-0.1,0.2-0.1,0.3-0.2
		c0.7-0.6,1.6-1.4,2.5-1.5c0.3,0,0.7,0.1,0.9,0.3c0.2,0.2,0.2,0.5,0.1,0.7C86.2,41.2,86.7,41.3,86.9,41.3 M67.7,53.3
		c-0.3,0-0.6,0-0.9,0.1c-0.1,0-0.1,0-0.2,0s-0.5,0-0.6-0.1c-0.1-0.2,0.3-0.6,0.5-0.7c0.3-0.2,0.5-0.4,0.8-0.5
		c0.4-0.2,0.8-0.4,1.3-0.5c0.1,0,0.6-0.2,0.5-0.4c0-0.2-0.4-0.2-0.6-0.2s-1.1,0.4-1.3,0.3c0,0,0,0,0-0.1c0-0.3,0.1-0.7,0.1-1
		c0-0.1-0.1-0.2-0.2-0.2S67,50.1,67,50.2c-0.2,0.8-0.3,1.4-1,2c-0.3,0.3-0.6,0.6-0.9,0.9c-0.4,0.5-0.7,1-1.1,1.4
		c-0.1,0.1-0.4,0.3-0.5,0.3c-0.7-0.1-0.2-2.2-0.1-2.7c0.1-0.3,0.3-0.6,0.6-0.6c0.1,0,0.3,0,0.4,0.1h0.1c0.2,0,0.3,0,0.4-0.1
		c0.2-0.2,0.4-0.6,0.5-0.8c0.1-0.3,0.2-0.6,0.3-0.8c0.2-0.5,0.5-0.9,1-1.1c0.4-0.2,0.9-0.3,1.3,0c0.1,0.1,0.2,0.2,0.3,0.3
		c0.1,0.1,0.2,0.2,0.3,0.2c0.1,0.1,0.3,0.1,0.4,0.1c0.3,0,0.5,0,0.8,0.1c0.4,0.1,0.6,0.3,0.9,0.5c0.1,0.1,0.2,0.3,0.3,0.5
		c0.3,0.8-0.1,1.5-0.8,2c-0.3,0.2-0.8,0.6-0.7,1.1c0,0.2,0.1,0.3,0.2,0.5c0.4,0.9-0.6,1.3-1.4,1.1C68,55.1,67.6,55,67.2,55
		s-0.9,0.2-1.3,0.2c-0.2,0-0.5,0-0.6-0.2c-0.2-0.2,0-0.5,0.1-0.6c0.5-0.5,1.1-0.5,1.8-0.6c0.2,0,0.4-0.1,0.6-0.1
		c0.1,0,0.4-0.1,0.4-0.2C68.1,53.3,67.8,53.3,67.7,53.3 M62,59.1c0.6,0,1.2,0.4,1.3,1c0.1,0.7-0.4,1.2-1,1.4c-0.2,0-0.3,0-0.5,0
		c-0.4-0.2-0.6-0.7-0.6-1.1C61.2,59.8,61.4,59.2,62,59.1L62,59.1L62,59.1z M59.6,58.4c-0.1-0.4-0.1-0.9-0.1-1.1
		c-0.1-1.6,0.2-2.5,1-3.8c0.1-0.1,0.3-0.6,0.2-0.6c-0.1-0.1-0.5,0.3-0.5,0.4c-0.4,0.5-0.7,1.1-1.1,1.7c0,0,0,0-0.1,0.1
		c-0.1,0-0.2-0.5-0.3-0.5c-0.3-1.4-0.1-2.5-0.3-3.7c0-0.1-0.1-0.2-0.1-0.3c-0.1,0-0.2,0.2-0.3,0.4c-0.1,0.5,0,1.3,0,2
		c0,0.1,0.1,0.5,0,0.5s-0.2,0-0.2-0.1c-0.2-0.2-0.5-0.4-0.7-0.6c-0.2-0.2-0.6-0.4-0.8-0.5c-0.1,0-0.2,0-0.2,0
		c-0.1,0.2,0.4,0.6,0.5,0.7c1.4,1.2,1.7,2.3,2.1,4c0.1,0.4,0.2,0.8,0.2,1.2c0,0.3-0.1,0.5-0.3,0.5c-1,0.1-2.7-1.6-2.6-2.5
		c0.1-0.6,0.8-0.9,0.4-1.5c-0.1-0.2-0.3-0.4-0.4-0.6c-0.2-0.3-0.4-0.5-0.5-0.8c-0.1-0.2-0.2-0.4-0.3-0.6c-0.2-0.5-0.2-1,0.2-1.3
		c0.6-0.4,0.9,0.3,1.1-0.7c0-0.1,0-0.2,0.1-0.2c0.6-2,1.7-2.3,2.6-1.6c0.4,0.3,0.8,0.8,1,1.5c0.1,0.3,0.3,0.6,0.7,0.5
		c0.6-0.2,1.2-0.1,1.2,1c0,0.6-0.3,1.3-0.4,1.6c-0.1,0.3-0.3,0.7-0.2,0.9c0,0.1,0.1,0.2,0.3,0.2c0.3,0.1,0.5,0.3,0.6,0.6
		c0.1,0.4,0.1,0.7,0,1c-0.2,0.6-0.8,0.9-1.1,1.5c-0.1,0.2-0.2,0.5-0.3,0.7C60.4,59,59.8,59.8,59.6,58.4 M48.9,57.9
		C48,58.5,47.1,58.1,47,57c0-0.4,0-0.9,0.5-1.1c0.4-0.2,1,0.1,1.3,0.4C49.2,56.7,49.2,57.3,48.9,57.9L48.9,57.9L48.9,57.9z
		 M53.7,50.6c0.1,0.4,0.1,0.7,0.1,1.1c0,0.3-0.1,0.6,0,0.9c0,0.3,0.1,0.5,0.2,0.7c0,0.1,0.1,0.2,0.2,0.3c0.1,0.1,0.2,0.3,0.2,0.5
		c0.1,0.2,0.1,0.4,0.1,0.6c0,0.2-0.1,0.4-0.3,0.5c-0.5,0.1-0.9-0.2-1.1-0.6c-0.2-0.3-0.3-0.6-0.4-1c-0.1-0.2-0.1-0.5-0.1-0.8
		s0-0.6,0-0.9c0-0.1,0-0.2-0.1-0.2s-0.2,0.3-0.2,0.4c0,0.2-0.1,0.7-0.3,0.8c-0.1,0.1-0.4-0.1-0.5-0.2c-0.1-0.1-0.1-0.1-0.2-0.2
		c-0.2-0.1-0.3-0.2-0.5-0.3c-0.1,0-0.5-0.2-0.6-0.1c-0.1,0.1,0.3,0.5,0.4,0.5c0.7,0.6,2.1,2.3,2.4,3.1c0.1,0.3-0.1,0.3-0.3,0.3
		l-0.9,0c-0.1,0-0.3,0-0.4,0.2c0,0.2,0.5,0.2,0.6,0.3c0.6,0.1,1,0.2,1.6,0.4c0.1,0.1,0.2,0.1,0.4,0.2c0.5,0.3,0.7,0.6,0,0.9
		c-0.5,0.2-1.1,0.2-1.6,0.1c-0.6-0.1-1.2-0.4-1.6-0.8c-0.3-0.3-0.6-0.7-0.5-1.1c0-0.1,0-0.1,0.1-0.2c0.2-0.2,0.4-0.5,0.4-0.8
		c0-0.2-0.2-0.3-0.4-0.4c-0.5-0.1-1.1-0.4-1.4-0.8c-0.6-0.9-0.2-2.1,0.3-2.9c0.2-0.4,0.5-0.8,1-1c0.3-0.1,0.6-0.2,0.9-0.1
		c0.2,0.1,0.3,0.3,0.4,0.4c0.3,0.2,0.7,0.1,0.9-0.1C52.9,49.7,53.5,50,53.7,50.6 M60.5,46.7c-0.2,0.3-0.6,0.5-1,0.5
		c-0.5,0-0.9,0-1.1-0.6c0-0.1-0.1-0.7-0.3-0.7s-0.5,0.5-0.6,0.6c-0.3,0.5-0.9,1.6-1.5,1.7c-0.6,0.1-0.4-0.6-0.5-1s-0.3,0.1-0.4,0.2
		c0,0.1-0.1,0.2-0.1,0.3c-0.2,0.3-0.5,0.6-0.9,0.5c-0.3-0.1-0.4-0.6-0.4-0.9c0.1-0.5,0.4-1.2,0.7-1.6c0.2-0.3,0.6-0.7,1-0.9
		c0.2-0.1,0.4-0.2,0.6,0c0.1,0.1,0.1,0.1,0.2,0.2c0.3,0.2,0.6,0.1,0.8-0.2c0.8-0.9,2.1-1.1,3-0.3C60.5,45,60.9,45.9,60.5,46.7
		 M61.7,37.9c-0.2,0.6-0.6,1-1.1,1.2c-0.1,0-0.2,0.1-0.3,0.1c-0.3,0.1-0.6,0.3-0.6,0.7c0,0.2,0.1,0.3,0.2,0.5
		c0.2,0.2,0.2,0.4,0.1,0.7c-0.2,1-1,1.1-1.9,1.3c-0.4,0.1-0.8,0.2-1.2,0.3c-0.2,0.1-0.6,0.2-0.8,0.2s-0.4-0.1-0.5-0.3
		c-0.2-0.3,0.1-0.6,0.3-0.8c0.5-0.4,1.2-0.5,1.7-0.7c0.1,0,0.8-0.3,0.7-0.5c0-0.1-0.6,0-0.7,0c-0.4,0.1-0.8,0.2-1.2,0.3
		c-0.1,0-0.4,0.1-0.4,0c-0.1-0.1,0.2-0.5,0.2-0.5c0.7-1,1.5-2,2.5-2.8c0.1-0.1,0.8-0.7,0.7-0.8c0-0.1-0.3,0-0.3,0.1
		c-0.7,0.3-1.3,0.9-1.9,1.4c-0.1,0.1-0.2,0.2-0.3,0.2h-0.1c-0.1,0-0.1-0.5-0.1-0.6c0-0.2,0-0.7,0-0.8c0,0,0-0.2-0.1-0.2
		c-0.2,0-0.3,0.5-0.3,0.5c-0.2,0.9-0.2,1.5-0.5,2.2c-0.2,0.5-1.2,2.2-1.6,2.6c-0.2,0.2-0.4,0.2-0.6-0.1c-0.3-0.4-0.1-1.4,0-1.9
		c0.2-0.7,0.5-1.1,1-1.7c0.3-0.4,0.5-0.7,0.5-1.2c0-0.3,0-0.5,0-0.8s0.1-0.6,0.3-0.8c0.2-0.3,0.4-0.5,0.7-0.7c0.4-0.3,1-0.4,1.5-0.1
		c0.2,0.1,0.3,0.3,0.4,0.6c0,0.2,0.3,0.1,0.4,0.1c0.2-0.1,0.4-0.2,0.5-0.2c1.3-0.6,2.3-0.3,2.8,1.1C61.9,36.9,61.8,37.5,61.7,37.9
		 M62.5,41.9c0.3,0.3,0.1,0.9-0.1,1.2c-0.5,0.6-1.5,0.7-1.7-0.2c0-0.2,0-0.4,0.1-0.6c0.1-0.2,0.4-0.3,0.6-0.4
		C61.7,41.6,62.2,41.6,62.5,41.9 M66.8,39.4c-0.2,0.3-0.9,0.3-1.3,0.2c-0.3-0.1-0.6-0.2-0.9-0.4c-0.1-0.1-0.5-0.4-0.7-0.3
		c-0.1,0.1,0.1,0.6,0.2,0.7c0.1,0.2,0.2,0.5,0.1,0.7c-0.2,0.4-0.6,0.6-1.1,0.6c-0.2,0-0.5-0.1-0.6-0.3c-0.6-0.7,0.4-3.2,0.9-3.8
		s1.1-0.4,1.6,0c0.3,0.2,0.5,0.4,0.7,0.6C66.3,37.8,67.3,38.7,66.8,39.4 M69.6,45.4c0.1,0.1,0.2,0.2,0.2,0.4c0,0.1,0.1,0.3,0,0.4
		c0,0.2-0.2,0.5-0.3,0.6c-0.5,0.6-1.4,0.8-2.2,0.7c-0.1,0-0.1,0-0.2,0c-0.6-0.1-1.1-0.2-1.6,0.2c-0.2,0.1-0.4,0.3-0.6,0.5
		c-0.3,0.3-0.5,0.5-1,0.6c-0.1,0-0.1,0-0.2,0c-0.2,0-0.4-0.1-0.4-0.3c0-0.5,0.3-0.9,0.6-1.2c0.8-0.9,1.3-0.9,2.5-1
		c0.2,0,0.3,0,0.5,0c0.1,0,0.4-0.1,0.4-0.1c0-0.1-0.2-0.1-0.2-0.1c-0.3-0.1-0.7-0.2-1.1-0.2c-0.1,0-0.3,0-0.3-0.1s0.1-0.3,0.2-0.4
		c0.2-0.3,0.5-0.5,0.7-0.7s0.4-0.3,0.6-0.5c0.1-0.1,0.3-0.2,0.4-0.3s0.4-0.3,0.3-0.4c-0.1-0.1-0.8,0.2-0.9,0.3
		c-0.1,0-0.1,0.1-0.1,0.1c-0.4,0.3-0.8,0.5-1.1,0.8c-0.1,0-0.1,0.1-0.2,0.2c0,0-0.2,0.2-0.3,0.2c0,0,0-0.1,0-0.2
		c0-0.1,0-0.2,0.1-0.3c0-0.2,0.1-0.4,0.2-0.6c0-0.1,0.2-0.6,0.1-0.7c-0.1,0-0.2,0.1-0.2,0.1c-0.1,0.1-0.2,0.2-0.3,0.3
		c0,0.1-0.1,0.1-0.1,0.2c-0.2,0.4-0.4,0.9-0.6,1.3c-0.1,0.3-0.3,0.6-0.5,0.9c-0.2,0.3-0.4,0.6-0.6,1c-0.1,0.2-0.2,0.3-0.3,0.5
		s-0.6,0.9-0.9,0.6c-0.3-0.4-0.2-2.3,0.2-3.3c0.2-0.6,0.5-0.7,1-1c0.1-0.1,0.3-0.1,0.4-0.2c0.5-0.4,0.5-1,0.9-1.6
		c0.2-0.4,0.6-0.6,1.1-0.7c0.3,0,0.8,0,1.1,0.3c0.1,0.1,0.2,0.2,0.3,0.3c0.2,0.1,0.3,0.2,0.5,0.1c0.1,0,0.2-0.1,0.3-0.1
		c0.5-0.2,1-0.2,1.4,0.2c0.5,0.4,0.5,1.1,0.3,1.6c-0.1,0.2-0.2,0.4-0.4,0.7C69.2,44.8,69.2,45,69.6,45.4 M75.6,36.8
		c-0.2-0.1-0.4-0.2-0.5-0.5c-0.1-0.2-0.1-0.5,0-0.8s0.4-0.9,0.8-0.9c0.5-0.1,0.9,0.4,1,0.8c0.1,0.4,0.1,1.1-0.4,1.3
		C76.2,37,75.9,37,75.6,36.8 M71.9,46.4c-0.3-0.5-0.7-0.9-0.8-1.4c-0.2-1,0.7-1.2,1-1.2c0.4,0,0.5-0.1,0.6-0.4
		c0.1-0.4,0.3-0.8,0.5-1.2c0.9-1.4,2.4-1.4,2.8,0.6c0,0.1,0.1,0.3,0.1,0.4c0.2,0.5,0.4,0.5,0.6,0.5c1.2-0.2,1.7,0.9,1.7,2
		c0,1.4-0.8,1.8-1.1,2.9c-0.1,0.5,0,1.1,0.2,1.6c0,0.2,0,0.4-0.1,0.6c-0.1,0.1-0.1,0.2-0.3,0.2c-0.8,0.4-1.5-1.1-1.6-1.7
		c-0.1-0.5-0.2-1.1,0-1.6s0.5-0.8,0.8-1.2c0-0.1,0.3-0.4,0.2-0.4c-0.1-0.1-0.9,0.5-1,0.6S75.1,47,75,47s-0.1-0.1-0.1-0.2
		c-0.2-0.8-0.2-1.7-0.2-2.6c0-0.1,0-0.2,0-0.3s-0.1-0.3-0.2-0.3s-0.2,0.3-0.2,0.4c-0.1,0.4-0.1,0.8-0.1,1.2c0,0.1,0,0.2,0,0.3
		s0,0.3,0,0.4c0,0.1,0,0.2-0.1,0.3c-0.2,0.2-1.4-1.1-1.6-0.7c0,0.1,0.2,0.4,0.3,0.4c0.1,0.1,0.2,0.2,0.3,0.3
		c0.6,0.5,0.9,0.8,1.3,1.5c0.1,0.1,0.3,1,0.2,1.1c0,0-0.1,0-0.2,0s-0.2-0.1-0.3-0.1c-0.4-0.1-0.8-0.2-1.2-0.3c0,0-0.2,0-0.2,0.1
		s0.1,0.2,0.2,0.2H73c0.5,0.2,1,0.5,1.4,0.8c0.3,0.2,0.6,0.5,0.8,0.9c0.1,0.2,0.3,0.6,0.1,0.8c-0.1,0.1-0.2,0.1-0.4,0.1
		c-0.5,0-1.4-0.6-1.9-0.9c-0.5-0.3-1-0.7-1.3-1.3c-0.1-0.1-0.1-0.3-0.2-0.5c-0.1-0.4-0.2-0.8,0.2-1.1c0.1,0,0.1-0.1,0.2-0.2
		C72.2,47,72.1,46.7,71.9,46.4L71.9,46.4L71.9,46.4z M71.5,35.4c0,0.1,0,0.3,0,0.4c0,0.2-0.1,0.2-0.2,0.1c-0.2-0.2-0.5-0.5-0.7-0.7
		s-0.3-0.4-0.5-0.6c-0.1-0.1-0.8-0.7-1-0.6l0,0c-0.1,0.1,0.3,0.6,0.4,0.7c0.3,0.4,0.7,0.8,1,1.2c0.1,0.2,0.3,0.3,0.4,0.5
		c0.1,0.1,0.1,0.1,0.2,0.2c0,0.1,0.2,0.2,0.1,0.3s-0.5-0.1-0.6-0.1c-0.4-0.2-1.2-0.5-1.6-0.4l-0.1,0.1c0,0.1,0.3,0.2,0.4,0.3
		c1.5,0.6,2.7,1.3,3.4,2.8c0.1,0.3,0.2,0.6,0.3,0.9c0.1,0.2,0,0.5-0.2,0.6c-0.1,0.1-0.3,0.1-0.4,0.1c-0.2,0-0.4-0.2-0.5-0.3
		s-0.3-0.3-0.4-0.4c-0.2-0.3-0.5-0.4-0.8-0.5c-0.1,0-0.2,0-0.3-0.1c-0.5-0.1-1.2-0.5-1.2-1.1c0-0.2,0-0.6-0.2-0.8
		c-0.1-0.1-0.3-0.1-0.4-0.2c-0.2-0.1-0.4-0.1-0.7-0.2c-0.3-0.1-0.7-0.3-0.9-0.6c-0.4-0.6,0-1.4,0.6-1.6c0.1,0,0.2-0.1,0.2-0.2
		c0.1-0.4-0.2-0.8-0.5-1.1c-0.3-0.4-0.5-1-0.2-1.5c0.1-0.2,0.2-0.3,0.3-0.4c0.7-0.6,1.5-0.5,2.2,0c0.2,0.1,0.4,0.2,0.5,0.4
		c0.2,0.1,0.5,0.4,0.7,0.3c0.2-0.1,0.4-0.3,0.6-0.3c0.3,0,0.6,0.2,0.8,0.3c0.5,0.3,1,0.9,1.1,1.4c0.2,0.5,0.2,1,0.2,1.5
		c0,0.2,0,0.7,0.1,0.8l0.1,0.1c0.1,0.1,0.2,0.1,0.3,0.2c0.5,0.3,0.5,1,0.5,1.5c0,0.4-0.2,0.9-0.4,1.2c-0.1,0.1-0.3,0.3-0.4,0.3
		c-0.3,0-0.5-0.4-0.6-0.7c-0.3-0.9-0.6-1.7-0.8-2.6c-0.1-0.4-0.1-0.8-0.2-1.2c0-0.2-0.1-0.7-0.3-0.7C71.5,34.7,71.5,35.2,71.5,35.4
		 M43.8,70.1c0,0.2,0.1,0.4,0.3,0.6c0.4,0.2,2.7-1.1,1.1-2C44,67.9,43.7,69.1,43.8,70.1 M39.2,51.4c0.4-0.8,1-0.8,1.6-0.1
		c0.3,0.4,0.3,1.1-0.1,1.4c-0.2,0.2-0.6,0.3-0.9,0.2c0,0-0.1,0-0.1-0.1C39.1,52.6,38.9,51.9,39.2,51.4 M28.8,70.9
		c-0.1-0.3,0.1-0.4,0.3-0.6c0.1-0.1,0.1-0.1,0.2-0.1c0.4-0.2,0.9-0.2,1.3-0.1s0.6,0.1,1,0.3c0.2,0.1,0.5,0.4,0.5,0.6
		c0.1,0.5-0.3,0.9-0.7,1.1c-0.3,0.2-0.6,0.3-0.9,0.4c-0.1,0-0.6,0.2-0.6,0.4c0,0.1,0.6,0,0.7,0c0.3-0.1,0.7-0.2,1-0.3
		c0.1,0,0.3-0.2,0.4-0.1c0,0,0,0.1,0,0.2c0,0.2,0,0.4,0,0.6s0,0.5,0.1,0.7l0.1,0.1c0.1,0,0.1-0.1,0.1-0.2c0.2-0.8,0.3-1.9,0.9-2.5
		c0.3-0.4,0.8-0.7,0.8-0.1v0.1c0,1.5,0.4,0.3,0.5-0.1v-0.1c0.1-0.2,0.1-0.3,0.2-0.5c0.1-0.3,0.3-0.6,0.6-0.7
		c0.3-0.2,0.6-0.3,0.6,0.2c0,0.7-0.3,1.9-0.8,2.5c-0.2,0.3-0.6,0.5-0.9,0.6c-0.3,0.1-0.5,0.2-0.6,0.4c-0.2,0.3-0.1,0.8-0.3,1.1
		c-0.1,0.3-0.4,0.6-0.7,0.7c-0.4,0.2-0.8,0-1.1-0.2c-0.1-0.1-0.2-0.2-0.3-0.3c-0.5-0.4-0.8-0.6-1.4-0.3c-0.6,0.3-1.4-0.3-1.7-0.8
		c-0.2-0.4-0.4-0.8-0.2-1.2c0.1-0.2,0.3-0.4,0.5-0.6c0.1-0.1,0.2-0.2,0.3-0.3C29,71.4,28.8,71.1,28.8,70.9 M39,65
		c0.1,0.4,0.2,1.1,0.1,1.5c-0.1,0.2-0.4-0.1-0.5-0.2c-0.5-0.5-0.9-1-1.3-1.6c-0.1-0.1-0.4-0.7-0.6-0.6c-0.1,0.1,0,0.5,0,0.6
		s0.1,0.2,0.1,0.2c0.8,1.5,1.7,2.6,3.2,3.4c0.6,0.3,0.2,0.6-0.2,0.8l-0.1,0.1c-0.2,0.1-0.5,0.3-0.6,0.5c0,0-0.1,0.1-0.1,0.2
		c0.1,0.1,0.4-0.1,0.5-0.1c0.6-0.3,2.2-0.8,2.8-0.5c0.5,0.3,0.2,0.9-0.1,1.2c-0.7,0.7-2.2,0.5-3,0.4c-0.2,0-0.4-0.1-0.6-0.2
		c-0.4-0.2-0.8-0.4-0.9-0.8c-0.1-0.4,0-0.8-0.1-1.2c-0.1-0.2-0.2-0.4-0.4-0.5c-0.4-0.3-1.1-0.3-1.6-0.5s-0.9-0.6-0.6-1.1
		c0.1-0.1,0.1-0.2,0.3-0.3c0.4-0.2,0.6-0.6,0.2-0.9c-0.2-0.1-0.4-0.3-0.5-0.5c-0.5-0.5-0.7-0.7-0.6-1.5c0.1-0.9,0.9-1.5,1.7-1.7
		c0.3-0.1,0.6-0.1,0.9-0.1c0.4,0.1,0.6,0.2,0.8,0.5c0.2,0.2,0.3,0.4,0.5,0.6c0.1,0.1,0.2,0.1,0.3,0.1s0.2-0.1,0.3-0.1
		c0.1-0.1,0.2-0.1,0.4-0.2c0.1,0,0.2,0,0.2,0c0.3,0,0.6,0.3,0.8,0.5c0.6,0.6,0.8,1.6,1,2.4c0.1,0.5,0.3,1.1,0.7,1.4
		c0,0.2,0,0.2,0.1,0.3c0.4,0.3,0.7,0.4,1,0.9c0.1,0.2,0.2,0.4,0.1,0.6c-0.2,0.3-0.7,0.3-1,0.2c-0.1,0-0.2,0-0.3-0.1
		c-0.5-0.2-1-0.4-1.4-0.7c-0.3-0.3-0.6-0.6-0.7-1c-0.1-0.2-0.1-0.5-0.1-0.8s-0.1-0.7-0.2-1c0-0.1-0.3-0.6-0.4-0.5
		C38.9,64.7,38.9,65,39,65 M43.7,62c0,0.1-0.2,0.2-0.2,0.2c-0.1,0-0.2-0.4-0.2-0.5c0-0.2,0-0.3-0.1-0.4c-0.1-1.3,0.1-2.3,0.3-3.6
		c0-0.1,0-0.2,0-0.2c-0.1,0-0.2,0.2-0.3,0.3c-0.3,0.7-0.4,1.3-0.5,2.1V60c-0.1,0.1-0.6-0.6-0.9-0.7c-0.1,0-0.1,0-0.1,0
		c-0.1,0.1,0.1,0.4,0.1,0.5c0.2,0.3,0.4,0.5,0.5,0.8c0.2,0.3,0.3,0.5,0.3,0.9c0,0.3,0.1,0.5,0.1,0.8c0.1,0.4,0.2,0.8,0.3,1.2
		c0.1,0.3,0.1,0.7-0.2,0.8c-0.1,0-0.2,0-0.3,0c-0.8-0.1-1.3-1.5-1.4-2.4c0-0.4,0-0.7-0.3-1c-0.4-0.5-1.4-2.5-0.2-3.1
		c0.2-0.1,0.4-0.1,0.7,0.1c0.3,0.2,0.5-0.6,0.5-0.8c0-0.5,0.3-0.9,0.7-1.1c0.4-0.2,0.8-0.4,1.3-0.4c0.4,0,0.7,0.1,1.1,0.3
		c0.4,0.2,0.7,0.6,0.8,1c0.2,0.5,0.2,1.1-0.1,1.6c-0.2,0.3-0.5,0.8-0.2,1.1c0.1,0.1,0.2,0.1,0.4,0.1c0.3,0,0.5,0.2,0.6,0.4
		c0.2,0.3,0.2,0.8,0,1.1c-0.1,0.1-0.1,0.3-0.2,0.4c-0.2,0.3-0.3,0.6-0.4,0.9c-0.7,1.3-0.7,2.1-0.8,2.8c-0.1,0.8-0.7,1.1-1,0.7
		c-0.1-0.2-0.2-0.6-0.2-1.1c-0.1-1.5,0.6-2.7,1-3.3c0.1-0.2,0.4-0.5,0.3-0.6c0,0-0.1-0.1-0.4,0.2C44.2,61.3,43.8,61.8,43.7,62
		 M50,69.7c0.2,0.2,0.5,0.4,0.9,0.4c0.3,0,0.6,0,0.8-0.2c0.3-0.3,0.3-0.6,0.2-0.9c-0.3-0.9-1.1-0.7-1.7-0.3
		C49.6,69,49.6,69.3,50,69.7 M48.6,64.6c-0.1,0.2-0.2,0.3-0.4,0.7c-0.5,0.8-1.3,1.8-1.8,2c-0.2,0.1-0.4,0.1-0.6,0
		c-0.2-0.2-0.2-0.5-0.2-0.8c0-0.4,0.2-0.8,0.4-1.1c0.1-0.2,0.3-0.4,0.5-0.6c0.1-0.1,0.3-0.3,0.4-0.4c0.3-0.3,0.3-0.6,0.3-1
		c0-0.3,0-0.7,0-1c0-0.7,0.2-1.6,0.7-2.1c0.4-0.4,1.4-0.8,1.9-0.4C49.9,60,50,60,50.1,60c0.4,0.1,0.8-0.1,1.2-0.5s1-0.5,1.4-0.3
		c0.8,0.3,1.5,1.5,0.9,2.3c-0.6,0.6,0,1,0.3,1.5c0.1,0.1,0.2,0.3,0.2,0.5c0,0.6-0.6,1.1-1.1,1.3c-0.6,0.2-0.9,0.2-0.8,1
		c0.1,0.3-0.1,0.8-0.3,1s-0.3,0.3-0.6,0.4c-0.2,0.1-0.4,0.2-0.7,0.2c-0.2,0-0.4,0.1-0.6,0.1c-0.1,0-0.3,0-0.4,0.1
		c-0.2,0-0.4,0.1-0.6,0.2c-0.5,0.2-1,0.6-1.6,0.6c-0.2,0-0.4-0.1-0.4-0.3c-0.1-0.2,0.1-0.4,0.3-0.6s0.7-0.6,0.8-0.7
		c0.7-0.4,1.6-0.5,2.3-0.6c0.1,0,0.4-0.1,0.4-0.2c-0.1-0.4-1.1-0.2-1.3-0.2c-0.7,0.1-0.4-0.3,0-0.8c0.7-0.8,1.6-1.9,2.1-2.8
		c0.1-0.2,0.2-0.5,0.1-0.5c-0.1-0.1-0.4,0.2-0.4,0.3c-0.4,0.5-1.1,1.3-1.4,1.7c-0.3,0.3-0.4,0.2-0.4-0.2c0-0.5,0-1-0.1-1.5
		c0-0.1-0.1-0.5-0.2-0.4c-0.1,0-0.2,0.4-0.2,0.5C49.1,62.6,49,63.9,48.6,64.6 M59.1,73.6c-0.1,0-0.5,0-0.6,0.2v0.1
		c0,0.1,0,0.1,0,0.2c0,0.6-0.4,1-1,0.8c-0.4-0.1-0.7-0.5-1.1-0.8l0,0l0,0c-0.2-0.2-0.4-0.3-0.6-0.1c-0.1,0.1-0.1,0.1-0.1,0.2
		c-0.2,0.3-0.6,0.3-0.9,0.1c-0.1-0.1-0.2-0.1-0.4-0.2c-0.4-0.3-0.7-0.8-0.9-1.3c-0.2-0.4-0.6-1.2-0.6-1.7c0-0.1,0-0.3,0.1-0.4
		c0.2-0.2,0.5,0,0.6,0.1c0.3,0.2,0.5,0.5,0.6,0.8c0.2,0.4,0.4,0.9,0.5,1.3c0,0.1,0.1,0.3,0.2,0.3c0.2-0.1,0-0.8,0-0.9s0-0.2-0.1-0.3
		c0-0.1-0.1-0.3,0.1-0.4c0.1-0.1,0.3,0,0.4,0.1c0.1,0,0.2,0.1,0.3,0.2c0.6,0.3,0.7,0.6,1.1,1.2c0.1,0.1,0.1,0.2,0.2,0.3
		c0,0,0.2,0.3,0.3,0.2c0.2-0.1-0.3-1-0.3-1.2c0-0.3,0.1-0.3,0.3-0.2c0.5,0.1,0.8,0.1,1.3,0c0.1,0,0.3,0,0.3-0.2
		c0-0.1-0.1-0.2-0.2-0.2c-0.1,0-0.2,0-0.2,0c-0.7,0-1.4-0.1-2-0.3c-0.1,0-0.2-0.1-0.2-0.1c0-0.1,0.2-0.4,0.3-0.4
		c0.1-0.1,0.2-0.3,0.3-0.4c0-0.1,0.3-0.4,0.2-0.4c-0.1-0.1-0.3,0.1-0.4,0.1c-0.3,0.2-0.6,0.5-1,0.6c-0.4,0.2-0.9,0-1.3-0.1
		c-0.5-0.1-1.7-0.7-1.3-1.4c0.1-0.1,0.1-0.2,0.2-0.2c0.2-0.1,0.3-0.1,0.5,0c1.2,0.4,1.3,0.3,2.4-0.3c0.2-0.1,0.5-0.3,0.8-0.3
		c0.1,0,0.2,0,0.4,0c0.6,0,1,0.3,1.2,0.9c0,0.1,0,0.2,0,0.3c0,0.1,0,0.2,0,0.3c0,0.1-0.1,0.3-0.1,0.4c0,0.2,0.3,0.3,0.4,0.3
		c0.2,0.1,0.5,0.2,0.8,0.3c0.3,0.1,0.6,0.3,0.7,0.6c0.3,0.4,0.3,0.9,0.1,1.4C60.2,73.3,59.6,73.5,59.1,73.6 M59.8,64.5
		c0,0.1,0.1,0.3,0.1,0.4c0.2,0.9-0.3,1.4-1.1,1.5c-0.4,0-0.8-0.1-1.1-0.1s-0.5,0.2-0.6,0.4c-0.2,0.3-0.5,0.5-0.9,0.7
		c-0.7,0.2-2,0.1-2.6-0.2c-0.5-0.2-0.2-0.5,0.1-0.7c0.5-0.3,1.4-0.3,2-0.2c0.1,0,0.2,0,0.3,0s0.4,0,0.4-0.1s-0.1-0.1-0.1-0.1
		c-0.3-0.1-0.6-0.2-0.9-0.4c-0.3-0.1-0.1-0.3,0.1-0.4c1-0.6,2.2-0.3,3.2-0.1c0.1,0,0.2,0,0.2-0.1c0,0,0-0.1-0.1-0.1
		c-0.1-0.1-0.4-0.2-0.6-0.3c-0.2-0.1-0.4-0.2-0.6-0.2l-0.1-0.1c0-0.1,0.2-0.3,0.3-0.3c0.3-0.2,0.5-0.5,0.7-0.8
		c0.1-0.1,0.1-0.2,0.2-0.3c0-0.1,0.2-0.3,0.1-0.4c-0.1-0.1-0.5,0.3-0.6,0.3c-0.2,0.3-0.5,0.5-0.7,0.7c-0.3,0.3-0.8,0.5-1.3,0.2
		c-0.2-0.1-0.4-0.5-0.4-0.7c-0.1-0.4,0-0.8,0.1-1.2s0.3-0.9,0.6-1.2c0.1-0.1,0.1-0.1,0.2-0.1c0.2-0.1,0.6-0.1,0.8,0s0.4,0.5,0.6,0.5
		c0.1,0,0.3,0,0.4-0.1c0.2-0.1,0.5-0.3,0.8-0.3c0.1,0,0.2,0,0.3,0c0.3,0.1,0.5,0.3,0.7,0.6c0.2,0.2,0.3,0.5,0.3,0.8
		c0,0.4,0,0.8-0.3,1.1C59.6,63.5,59.6,63.8,59.8,64.5 M68.2,58.7c-0.2-0.1,0-0.2,0-0.2c0.2-0.1,0.4-0.1,0.6-0.2
		c0.1,0,0.6-0.2,0.6-0.3s-0.2-0.1-0.4-0.1c-0.8,0.2-1.2,0.3-2.1,0.3c-0.2,0-0.4,0-0.7-0.1c-0.3-0.1-0.6-0.1-0.9-0.2
		c-0.4,0-0.8-0.1-1.2-0.1c-0.1,0-0.1,0-0.2,0c-0.3,0-1,0-0.6-0.5c0.3-0.4,1.1-0.8,1.5-0.9c0.5-0.2,1.8-0.5,2.2,0
		c0.2,0.2,0.2,0.3,0.5,0.3c0.3,0.1,0.9,0,1.3-0.1c0.6,0,1.3,0.1,1.6,0.6c0.2,0.3,0.1,0.6,0,0.9c-0.1,0.2-0.1,0.3,0,0.5
		s0.4,0.3,0.5,0.4c0.2,0.1,0.3,0.3,0.3,0.5c0.1,0.3-0.1,0.7-0.3,0.9c-0.3,0.3-0.7,0.4-1,0.4c-0.4,0-0.6,0-0.8,0.3
		c0,0.1-0.1,0.1-0.1,0.2c-0.4,0.6-1.4,0.5-1.9,0.2s-1-1.3-1.3-1.4c-0.1,0-0.3,0-0.4,0c-0.5,0.1-0.8-0.1-1-0.3
		c-0.1-0.1-0.9-1.5-0.2-1.6c0.4-0.1,0.8,0,1.2,0.1c0.3,0.1,0.5,0.2,0.7,0.3c0.5,0.3,0.6,0.6,0.9,1.1c0.2,0.5,0.6,1.1,0.8,1
		c0.1,0,0-0.2,0-0.3c-0.1-0.5-0.4-1-0.5-1.5v-0.1c0.1-0.1,0.5,0.1,0.5,0.2c0.5,0.2,0.9,0.4,1.4,0.6c0.1,0,0.5,0.2,0.6,0.1
		c0.1-0.1-0.3-0.4-0.4-0.4C69,59.2,68.6,59,68.2,58.7 M76.2,56.5c-0.5,0.1-0.9,0.3-1.3,0.5c-0.1,0.1-0.6,0.4-0.5,0.6
		c0.1,0.1,0.3,0,0.4,0c0.4-0.1,0.7-0.3,1.1-0.4c1-0.4,2.3-0.3,3,0.7c0.1,0.2,0.2,0.4,0,0.6l0,0c-0.2,0.1-0.7,0-0.9,0h-0.1
		c-0.6-0.1-1.1-0.1-1.7,0.2c-0.7,0.3-1.3,0.5-2.1,0.4c-0.8-0.2-1.7-0.9-1.3-1.8c0-0.1,0.1-0.1,0.1-0.2c0.2-0.2-0.5-0.4-0.6-0.4
		c-0.2-0.1-0.4-0.2-0.6-0.3c-0.5-0.3-0.8-0.9-0.6-1.5c0.2-0.7,0.8-1,1.4-1.1c0.1,0,0.3,0,0.4,0s0.3,0,0.3-0.1s0.1-0.2,0.1-0.2
		c0-0.1,0.1-0.3,0.2-0.4c0.4-0.7,1.2-0.8,1.9-0.5c0.5,0.2,0.9,0.7,1.2,1.1c0.2,0.3,0.4,0.5,0.6,0.8c0.2,0.2,0.4,0.3,0.6,0.4
		c0.1,0,0.2,0,0.3-0.1c0.6-0.3,1.4,0.6,1.7,1.1c0.1,0.1,0.1,0.3,0.2,0.4c0.1,0.2,0.2,0.6,0,0.9c-0.3,0.4-1.1,0-1.4-0.1
		c-0.7-0.4-1.3-0.8-2-1.3c-0.5-0.3-0.8-0.7-1.2-1.2c-0.1-0.1-0.5-0.5-0.6-0.4c-0.1,0,0,0.2,0,0.2c0.1,0.1,0.2,0.3,0.3,0.4
		c0.1,0.1,0.2,0.2,0.3,0.3c0.1,0.1,0.1,0.2,0.2,0.3s0.1,0.2-0.1,0.2l0,0l0,0c-0.6-0.1-1.3-0.1-2-0.1c-0.1,0-0.5,0-0.5,0.2
		s0.5,0.2,0.7,0.3c0.8,0.1,1.5,0.2,2.2,0.4c0.1,0,0.2,0.1,0.2,0.1C76.3,56.2,76.5,56.4,76.2,56.5L76.2,56.5L76.2,56.5z M88.1,79.7
		c-0.5,0.1-1-0.1-1.3-0.5c-0.2-0.3-0.4-0.7-0.8-0.7c-0.1,0-0.2,0.1-0.3,0.1c-0.4,0.4-1.4,0.6-1.7,0.1c-0.2-0.3-0.2-0.6-0.1-0.9
		c0-0.3,0.2-0.8,0.1-1c-0.1-0.3-0.3-0.3-0.6-0.4c-0.1,0-0.1,0-0.2,0c-0.4-0.1-0.5-0.4-0.4-0.8c0-0.3,0.1-0.8,0-1.1
		c0-0.1-0.1-0.2-0.2-0.3c-0.1-0.2-0.2-0.3-0.3-0.5c-0.1-0.3-0.2-0.6,0-0.8c0.3-0.3,0.7-0.1,1,0.1c1.6,1,2.1,2.4,2,4.2
		c0,0.1,0,0.1,0,0.2c0,0.2,0.1,0.3,0.2,0.1c0.3-0.3,0.4-1,0.4-1.4c0-0.2,0-0.4,0-0.6v-0.1v-0.1l0,0c0.1,0,0.1,0.2,0.2,0.2
		c0.4,0.6,0.8,1.2,1.1,1.9c0.1,0.1,0.3,0.6,0.5,0.5s0-0.8-0.1-1s-0.2-0.4-0.3-0.6c-0.1-0.2-0.3-0.5-0.4-0.8c0-0.2,0.1-0.2,0.2-0.2
		s0.2,0.1,0.4,0.1c0.1,0.1,0.6,0.2,0.7,0S87.8,75,87.7,75c-0.3-0.1-0.7-0.3-1-0.5c-0.8-0.5-1.6-1-2.4-1.6c-0.1,0-0.1-0.1-0.2-0.1
		c-0.1-0.1-0.5-0.3-0.3-0.5C84.2,72,85,72,85.5,72s1.6,0.3,1.7,0.9c0,0.1,0,0.2,0,0.3c0,0,0,0.1,0.1,0.1c0.1,0.1,0.6,0.2,0.7,0.3
		c0.4,0.1,0.9,0.3,1.3,0.6c0.5,0.3,0.9,1,0.8,1.6c0,0.1,0,0.2,0,0.2c0,0.2-0.1,0.4-0.3,0.4c-0.1,0-0.2,0.1-0.3,0.1
		c-0.2,0.1-0.1,0.5-0.1,0.7s0.1,0.4,0.1,0.5c0.2,0.8-0.3,1.5-1,1.8C88.5,79.6,88.3,79.6,88.1,79.7 M74.7,70.6c0-0.5,0.1-1,0.6-1.2
		c0.6-0.2,1.2-0.1,1.6,0.5c0.1,0.1,0.2,0.2,0.3,0.3c0.2,0.1,0.4,0.2,0.6,0.1s0.5-0.2,0.8-0.3c0.4,0,0.9,0.2,1.2,0.5
		c0.7,0.5,1.3,1.4,0.5,2.1c-0.2,0.1-0.4,0.2-0.6,0.3c-0.4,0.1-1,0.1-0.9-0.5c0-0.1,0-0.3,0.1-0.4c0.1-0.3-0.3-0.4-0.5-0.2
		c-0.2,0.2-0.2,0.7-0.5,0.8c-0.2,0-0.3-0.1-0.4-0.2c-0.3-0.3-0.5-0.6-0.8-0.9l-0.1-0.1c0,0,0,0,0-0.1c-0.4-0.6-0.9-0.4-0.5,0.2
		l0.1,0.1c0.1,0.2,0.3,0.4,0.4,0.6s0.2,0.5,0,0.7c-0.3,0.4-0.9,0.4-1.4,0.3c-0.9-0.3-1.1-1.4-0.4-2.1c0.1-0.1,0.1-0.3,0.1-0.5
		C74.7,70.7,74.7,70.6,74.7,70.6 M74.1,75.8c-0.1-0.6,0.5-1.1,1-1.3c0.5-0.2,1-0.2,1.6-0.1c0.1,0,0.2,0,0.3,0c0.4,0,0.9,0,1.3-0.2
		c0.1,0,0.1-0.1,0.2-0.2c0.4-0.4,1.2-0.6,1.7-0.2c0.1,0.1,0.2,0.2,0.3,0.3c0.2,0.4-0.4,0.8-0.7,1c-0.3,0.2-0.5,0.3-0.8,0.4
		c-0.8,0.2-1.6,0.3-2.4,0.2c-0.7-0.1-1.5,0.2-0.2,0.5c0.3,0.1,0.6,0.1,0.9,0.2l0,0c0.1,0,0.3,0,0.3,0.1s-0.1,0.2-0.2,0.2
		c-0.5,0.3-1,0.6-1.5,0.8c-0.1,0-0.2,0.1-0.4,0.1c-1.1,0.4-0.7,0.7,0.1,0.5c0.1,0,0.3-0.1,0.4-0.1c0.4-0.1,0.7-0.3,1-0.4
		c0.1-0.1,0.4-0.2,0.4,0s-0.1,0.5-0.2,0.7c-0.3,1.1,0.1,1,0.5,0.2c0-0.1,0-0.1,0.1-0.2s0.1-0.3,0.2-0.4c0.2-0.6,0.6-1,1-1.5
		c0.5-0.5,1.7-1.2,2.3-0.8c0.2,0.1,0.3,0.3,0.3,0.6c0,0.3-0.3,0.7-0.4,0.9c-0.2,0.3-0.3,0.5-0.5,0.8c-0.3,0.5-0.7,1.4-1.4,0.9
		c-0.2-0.1-0.3-0.1-0.5,0c-0.1,0.1-0.1,0.1-0.2,0.2c-0.2,0.2-0.2,0.5-0.4,0.8c-0.2,0.4-0.5,0.6-0.9,0.7c-0.2,0.1-0.5,0.1-0.7,0
		s-0.4-0.2-0.6-0.3c-0.2-0.2-0.2-0.4-0.5-0.4c-0.1,0-0.2,0-0.3,0c-0.3,0-0.6,0.2-1,0.2c-0.4,0.1-0.8,0-1.2-0.2
		c-0.1-0.1-0.3-0.2-0.4-0.3c-0.3-0.3-0.4-0.7-0.5-1.1c0-0.4,0-0.8,0.3-1.1c0.2-0.2,0.6-0.4,0.9-0.5c0.2-0.1,0.3-0.2,0.4-0.4
		C74.1,76.1,74.2,76,74.1,75.8 M87.3,70.9c-0.1-0.3,0-0.6,0.2-0.8c0.3-0.3,0.9-0.3,1.3-0.1c0.4,0.2,0.7,0.7,0.5,1.1
		c-0.1,0.3-0.6,0.5-0.9,0.6C87.9,71.7,87.4,71.5,87.3,70.9 M89.4,67.8c0.2-0.2,0.5-0.4,0.7-0.6c0.5-0.4,1-0.6,1.6-0.9
		c0.3-0.1,0.2-0.4-0.4-0.2c-0.3,0.1-0.6,0.2-0.8,0.3c-0.3,0.1-0.5,0.3-0.8,0.4c-0.2,0.1-0.5,0.3-0.7,0.5s-0.4,0.2-0.3-0.1
		c0-0.3,0-0.7-0.1-1c0-0.1-0.1-0.2-0.1-0.3c0,0,0,0-0.1,0c-0.2,0-0.2,0.3-0.2,0.4c-0.1,1-0.5,2.1-1.2,2.8c-0.1,0.1-0.2,0.2-0.2,0.2
		c-0.2,0.2-0.7,0.4-1,0.4c-0.2,0-0.5,0-0.7-0.1c-0.7-0.5,0.1-1.6,0.6-1.9c0.6-0.4,0.7-0.7,0.7-1.1c0.2-0.9,0.6-2.1,1.5-2.4
		c1.1-0.4,1.5,0.3,2.1,0.6c0.2,0.1,0.5,0.1,0.9,0c0.3,0,0.6-0.1,0.9-0.1c0.5,0,1.1,0.1,1.5,0.4c0.2,0.2,0.4,0.4,0.6,0.7
		c0.3,0.5,0.3,1.1-0.3,1.4c-0.2,0.1-0.7,0.4-0.8,0.5c-0.1,0.2,0,0.4,0.1,0.6c0.1,0.3-0.1,0.5-0.3,0.7c-0.5,0.3-1.1,0.4-1.7,0.4
		c-0.3,0-0.7,0-1-0.1C88.8,69,88.7,68.5,89.4,67.8 M107.5,67.3c-0.2,0.3-0.8,1-1.2,0.5c-0.3-0.4-0.1-0.9,0.1-1.3
		c0.3-0.5,0.8-1.2,1-1.8c0-0.1,0.1-0.3,0-0.3c-0.1-0.1-0.4,0.3-0.5,0.4s-0.2,0.3-0.3,0.4c-0.1,0.2-0.3,0.4-0.4,0.5
		c-0.2,0.2-0.3-0.1-0.3-0.3c-0.1-0.6-0.1-1.1-0.2-1.7c-0.1-0.6-0.2-1.1-0.4-1.7c0-0.1-0.3-0.7-0.5-0.6c-0.1,0-0.1,0.3-0.1,0.4
		c0.2,0.8,0.4,1.6,0.4,2.4c0,0.3-0.3,0.2-0.5,0.1c-0.4-0.3-0.8-0.6-1.3-0.9c-0.1,0-0.4-0.2-0.5-0.1c-0.1,0.1,0.1,0.2,0.1,0.3
		c0.1,0.1,0.1,0.1,0.2,0.2c0.5,0.4,1.1,0.9,1.4,1.5c0.4,0.7,0.8,1.7,0.6,2.5c-0.1,0.2-0.2,0.3-0.3,0.4c-0.2,0.1-0.5-0.2-0.6-0.4
		c-0.3-0.4-0.4-1-0.6-1.5c-0.3-0.7-0.6-1.2-1.2-1.6c-0.4-0.3-0.8-0.7-1-1.2c-0.2-0.3-0.2-0.7-0.1-1c0.2-0.4,0.6-0.8,1.1-0.8
		c0.1,0,0.5,0.1,0.6-0.1c0-0.2-0.1-0.4-0.1-0.6c-0.3-1.3,0.5-2.5,1.9-2.4s1.8,1.7,2,3c0.1,0.4,0.4,0.5,0.6,0.5
		c0.7-0.1,1,0.2,1.1,0.7C109,64.4,108.5,66.1,107.5,67.3 M114.2,58.7c-0.1,0.6-0.5,0.8-0.9,1.3c-0.1,0.1-0.1,0.2-0.1,0.3
		s0,0.1,0,0.2c0.1,0.3,0,0.6-0.2,0.8c-0.3,0.3-0.8,0.5-1.2,0.5c-0.3,0-0.5,0.1-0.8,0.1c-0.7,0.1-1.9,0-1.2-1.2
		c0.7-1,1.7-1.2,2.2-1.7c0.5-0.4,0.5-0.8-0.3-0.5c-0.6,0.3-0.9,0.6-1.5,0.9c-0.2,0.1-0.3,0.2-0.4,0.1c-0.1,0-0.2-0.3-0.4-0.6
		c-0.1-0.3-0.4-0.5-0.6-0.6c-0.1-0.1-0.3,0-0.2,0.2c0.1,0.2,0.2,0.3,0.3,0.6c0.2,0.5,0.2,1.1,0,1.5s-0.7,0.3-1-0.1
		c-0.1-0.2-0.2-0.5-0.2-0.7c-0.1-0.4-0.4-0.8-0.5-1.2c0-0.2,0-0.3,0-0.5c0-0.3,0.1-0.5,0.3-0.7c0.2-0.2,0.4-0.4,0.7-0.5
		c0.6-0.1,1.2,0.2,1.7,0.4s0.9,0,1.3-0.3s0.7-0.6,1.1-0.6C113.4,56.2,114.4,57.7,114.2,58.7 M116.1,59.6c0.4,0.3,0.3,0.9,0.1,1.2
		c-0.4,0.7-1.5,1-1.8,0.1c-0.1-0.2-0.1-0.5,0-0.7c0.1-0.3,0.4-0.5,0.6-0.6C115.3,59.5,115.9,59.4,116.1,59.6 M111.5,77.1
		c0.1,0.5-0.2,1-0.6,1.2c-0.3,0.1-0.2,0.6-0.1,0.8c0.1,0.6,0,1.2-0.3,1.7c-0.2,0.4-0.5,0.6-0.9,0.7c-1,0.1-1.2-0.6-1.5-1.3
		c-0.3-0.6-1.1-0.2-1.6-0.3c-0.5-0.1-0.8-0.4-0.9-0.8c-0.2-0.5,0-1.2,0-1.7c0-0.4,0-0.8-0.2-1.1c-0.5-0.6,0-2.1,1-1.7
		c0.7,0.3,0.5,2,0.6,2.7c0,0.5,0.2,0.6,0.3,0.4c0.2-0.2,0.2-0.4,0.2-0.6c0.1-0.4,0.2-1.6,0.6-0.9c0.4,0.6,0.7,1.7,0.9,2.3
		c0.3,1,0.7,1.1,0.5-0.2c-0.1-0.6-0.3-1.3-0.3-1.4s-0.1-0.3-0.2-0.5c-0.2-0.7,0.2-0.9,0.6-0.9C110.5,75.5,111.3,76.1,111.5,77.1
		 M113.6,69.5c-0.2-0.4-0.8-0.7-1.3-0.7s-1,0.3-1.4,0.5l0,0l0,0c-0.3,0.1-0.5,0.2-0.8-0.1c-0.1-0.1-0.1-0.1-0.1-0.2
		c-0.7-1.1-2.1,0.2-2.5,0.6c-0.2,0.2-0.3,0.4-0.4,0.6c-0.1,0.4-0.3,1.1,0.3,1.2c0.4,0,0.9-0.6,1.1-0.9c0.1-0.2,0.2-0.4,0.4-0.5
		c0,0,0-0.1,0.1-0.1c0.1-0.2,0.2-0.2,0.2,0.1c0,0.2-0.1,0.4-0.2,0.7c0,0.1-0.1,0.2-0.1,0.3c0,0.1-0.1,0.3,0,0.4s0.4,0.1,0.5,0.1
		s0.3,0,0.4-0.1c0.7-0.2,1-0.4,1.5-0.8c0.1-0.1,0.6-0.5,0.7-0.4s-0.2,0.5-0.3,0.6c-0.1,0.2-0.3,0.3-0.3,0.5
		c-0.1,0.2,0.1,0.3,0.4,0.3c0.6,0.1,1,0.1,1.6,0.3c0.1,0,0.4,0.1,0.4,0.2s-0.1,0.2-0.2,0.2s-0.2,0-0.3,0c-0.4-0.1-0.8-0.1-1.3-0.2
		c-0.4,0-0.8-0.1-1.2,0c-0.2,0-0.2,0.1-0.2,0.2c0.2,0.4,0.7,0.6,1,0.9c0.4,0.4,0.3,0.8-0.3,0.4c-0.2-0.2-0.5-0.4-0.6-0.4
		c-0.3-0.3-0.7-0.5-1-0.7c-0.5-0.2-1-0.3-1.5-0.3s-1.5,0.2-1.5,0.7s0.7,0.6,1.1,0.6c0.6,0,0.7,0,1.1,0.1c0.3,0.1,0.6,0.4,1.2,0.8
		c0.5,0.4,1,0.6,1.5,0.7c0.8,0.1,1.7,0.1,2.2-0.5c0.1-0.1,0.1-0.2,0.2-0.3c0.1-0.6,0.7-0.7,1.3-0.8c0.4-0.1,0.8-0.1,1.1-0.5
		c0.2-0.2,0.2-0.4,0.3-0.7c0-0.9-0.3-1.3-0.7-1.6c-0.2-0.1-0.4-0.2-0.6-0.2c-0.1,0-0.3,0-0.5-0.1C113.9,70.2,113.9,70.1,113.6,69.5
		 M103.4,68.1c-0.2-0.8-0.9-1.7-1.4-2.2c-0.3-0.3-0.7-0.4-1.1-0.4c-0.3,0-0.5-0.1-0.7-0.3c-0.1-0.1-0.2-0.3-0.3-0.4
		c-0.3-0.3-0.6-0.8-1-1c-0.6-0.4-1.3-0.2-1.5,0.4c-0.2,0.6-0.1,0.9-1.4,0.9c-1.4,0-1.6,1.6-0.7,2.4c0.2,0.2,0.5,0.4,0.8,0.6
		c0.1,0.1,0.3,0.2,0.3,0.5c-0.1,0.5,0.3,0.8,0.6,0.9c0.8,0.3,3.2,0.3,2.7-0.9c-0.5-1.1-1.8-1.3-2.5-1.5c-0.1,0-0.7-0.1-0.7-0.3
		c0-0.2,0.6-0.2,0.7-0.2c0.4,0,0.7,0,1.1,0.1c0.1,0,0.4,0.1,0.4,0c0,0,0-0.1,0-0.2c0-0.2-0.1-0.4-0.2-0.6c0-0.2-0.1-0.5-0.1-0.7
		c0,0,0-0.1,0.1-0.1s0.2,0.1,0.2,0.2c0.4,0.8,0.9,1.8,1.7,2.4c0.1,0,0,0,0.1,0.1s0.1,0.1,0.2,0.1c0.5,0.3,0.7,0.3,0.7,0.1
		c0.1-0.3-0.2-0.8-0.1-1.2c0-0.1,0.1-0.1,0.2,0c0.3,0.4,0.4,0.8,0.6,1.2C102.4,68.9,103.6,69.1,103.4,68.1 M99.8,72.1
		c0,0-0.1,0-0.2-0.1c-0.8-0.3-0.2-1.7,1.1-1.9c0.8-0.1,1.4,0.3,1.1,1.2c-0.1,0.1-0.1,0.3-0.2,0.4c-0.4,0.6,0.2,0.6,0.5,0.3
		c0.1-0.1,0.2-0.2,0.2-0.3c0.3-0.5,1.5-1.9,2.5-2.1c0.3-0.1,0.6-0.1,0.8,0.1c0.4,0.3,0.3,1,0,1.6c-0.1,0.3-0.3,0.5-0.5,0.8
		c-0.4,0.4-0.8,0.7-1.1,0.5c-0.1,0-0.2-0.1-0.2-0.1c-0.3-0.2-0.4-0.3-0.9,0.2c-0.3,0.3-0.6,0.6-1,0.8c-1.3,0.6-2.4,0-2.3-0.8
		C99.7,72.5,99.9,72.2,99.8,72.1 M116,65.7c0.1,0,0.2-0.1,0.2-0.2s-0.1-0.1-0.1-0.1c-0.3-0.1-0.8-0.2-1.2-0.2c-0.4,0-0.7,0-1.1,0
		c-0.1,0-0.3,0-0.4,0s-0.2,0-0.2-0.1s0-0.1,0.1-0.2s0.2-0.2,0.3-0.3c0.1-0.1,0.2-0.2,0.4-0.3c0.1-0.1,0.2-0.2,0.3-0.2
		c0.1,0,0.2-0.1,0.1-0.2c0-0.1-0.1-0.1-0.1-0.1c-0.1,0-0.2,0-0.3,0.1c-0.1,0.1-0.2,0.1-0.3,0.2c-0.4,0.2-0.8,0.5-1.2,0.7
		c-0.5,0.4-1.1,0.6-1.7,0.8c-0.4,0.2-1.2,0.3-1.1-0.7c0-0.4,0.2-0.8,0.8-1.2c1.2-0.8,2.3-0.2,3.2-0.7c0.3-0.2,0.6-0.4,0.9-0.5
		c0.9-0.3,1.9-0.3,1.9,0.8c0,0.1,0,0.2,0.1,0.3c0.1,0.2,0.2,0.3,0.4,0.4c0.1,0,0.2,0.1,0.3,0.1c0.6,0.2,1,0.5,1.1,1.1
		c0,0.5-0.2,0.9-0.7,1.2c-0.2,0.1-0.4,0.2-0.7,0.3c-0.2,0.1-0.5,0.2-0.5,0.5c0,0.2,0.1,0.5,0.1,0.7s0,0.5-0.2,0.7
		c-0.5,0.5-1.7,0.4-2.3,0c-0.3-0.2-0.6-0.5-0.9-0.7c-0.2-0.2-0.4-0.3-0.7-0.4c-0.2-0.1-0.3-0.1-0.5-0.1c-0.5-0.1-1,0-1.4,0
		c-0.3,0-0.8-0.1-0.9-0.5s0.5-0.6,0.7-0.7c1.4-0.5,2.8-0.4,3.9,0.5c0.1,0.1,0.2,0.2,0.3,0.3c0.1,0.1,0.2,0.2,0.3,0.1
		c0.1,0,0-0.1,0-0.2c-0.1-0.2-0.2-0.3-0.3-0.4c-0.1-0.1-0.2-0.2-0.3-0.3c-0.1-0.1-0.5-0.3-0.5-0.4c-0.1-0.3,1.1-0.2,1.3-0.2
		c0.1,0,0.3,0,0.4,0C115.7,65.7,115.8,65.7,116,65.7 M117.4,77.5c0,0.5,0,1.1-0.5,1.5c-0.2,0.1-0.4,0.2-0.6,0.2c-0.1,0-0.2,0-0.3,0
		c-0.4,0-0.8,0.1-1,0.6c0,0.1-0.1,0.2-0.2,0.2c-0.2,0.2-0.5,0.2-0.8,0.3c-0.3,0-0.6,0-0.9-0.2c-0.4-0.2-0.7-0.7-0.5-1.1
		c0.1-0.2,0.4-0.6,0.8-0.4c0.1,0.1,0.2,0.2,0.3,0.3c0.4,0.2,0.4,0.1,0.4-0.2c-0.1-0.6-0.6-0.9-0.6-1.4c-0.1-0.4,0.3-0.4,1.1-0.1
		c0.2,0.1,0.3,0.1,0.5,0.2c0.7,0.2,0.8-0.1,0.5-0.4c-0.4-0.4-1.2-0.4-1.4-0.9c-0.2-0.3,0-0.8,0.1-1c0.3-0.6,1-0.6,1.7-0.3
		C116.8,75.5,117.4,76.6,117.4,77.5 M112.8,83.4c-0.2,0.3-0.3,0.9-0.4,1.3c0,0.2-0.1,0.4-0.2,0.5c-1.2,2-4.2-0.8-4.2-2.1
		c0-0.8,0.6-1.2,1.2-1c1,0.2,0.7,1.2,1,1.7c0.2,0.3,0.4,0.2,0.5-0.1c0.1-0.3,0-0.6,0.1-0.9s0.2-0.7,0.4-0.9c0.1-0.2,0.3-0.3,0.4-0.4
		c0.7-0.5,1.6-0.3,1.9,0.4C113.7,82.4,113.2,82.8,112.8,83.4 M105.3,85.4c0.1,0,0.3,0,0.3-0.1c0.1-0.1-0.1-0.3-0.3-0.5
		c-0.1-0.2-0.5-0.4-0.9-0.6c-0.1-0.1-0.2-0.1-0.3-0.1c-0.2-0.1-0.4-0.1,0-0.4c0.2-0.2,0.6-0.5,0.6-0.8c0-0.1-0.2-0.1-0.3,0
		c-0.3,0.2-0.5,0.3-0.9,0.4c-0.5,0.1-1.2,0.2-1.7,0c-0.4-0.2-0.5-0.4-0.5-0.8c0-0.3,0.1-0.5,0.4-0.7s0.9-0.3,1.2-0.1
		c0.2,0.1,0.4,0.1,0.6,0c0.8-0.5,1.8-0.8,2.4-0.1c0.3,0.3,0.2,0.8,0.1,1.2c-0.1,0.3-0.1,0.5,0.1,0.7c0.1,0.2,0.4,0.4,0.6,0.5
		c0,0,0.1,0,0.1,0.1c0.6,0.3,1,0.8,1.2,1.5c0.1,0.7,0,1.3-0.5,1.7c-0.5,0.4-1.1,0.5-1.7,0.3c-0.4-0.2-0.9-0.5-1.1-0.9
		c-0.1-0.1-0.2-0.2-0.2-0.3c-0.3-0.3-0.6-0.6-0.9-0.9c-0.1-0.1-0.4-0.4-0.2-0.6c0.1-0.1,0.2-0.2,0.4-0.2
		C104.2,84.7,104.9,85.2,105.3,85.4 M101.8,85.8c0.7-0.6,1.4,0.1,1.4,0.8c0,0.4-0.2,0.9-0.6,1c-0.2,0-0.3,0-0.5-0.1
		s-0.3-0.3-0.4-0.5C101.4,86.6,101.4,86.2,101.8,85.8 M99.3,78.8c-0.1,0.1-0.5,0.9-0.2,1c0.1,0,0.4-0.5,0.7-0.9
		c0.1-0.1,0.2-0.2,0.3-0.4c0.5-0.7,1-1.3,1.3-1.6c0.1-0.1,0.3-0.3,0.4-0.3c0.2-0.1,0.2,0.1,0.2,0.3c0,0.1,0,0.5,0,0.9
		s0.2,0.6,0.3,0.6c0.2,0,0.2-0.6,0.2-0.7c0-0.5,0-1.1,0.2-1.6c0.2-0.4,0.4-0.8,0.8-1.1c0.2-0.1,0.6-0.4,0.8-0.2
		c0.2,0.2,0.1,0.5,0,0.7c0,0.1-0.1,0.2-0.1,0.3c-0.3,0.7-0.6,1.4-0.5,2.2c0,0.8,0,2.1-1.3,2.1c-0.1,0-0.3,0-0.4-0.1
		s-0.2-0.1-0.4-0.1c-0.3,0-0.4,0.3-0.5,0.5c-0.5,1.3-1.7,2-3.1,1.4c-0.9-0.4-1.5-1.5-1-2.4c0.1-0.1,0.5-0.9,0.1-0.9
		c-0.3,0-0.7-0.2-0.8-0.5c-0.4-1.1,0.8-1.8,1.8-2c0.3-0.1,0.7-0.2,1.1-0.3c0.6-0.3,1.2-0.8,1.8-1c0.4-0.2,0.8-0.2,1.2-0.2
		c0.2,0,0.3,0.1,0.3,0.2c0.1,0.5-1.4,1.4-1.8,1.7c-0.6,0.4-1.1,0.5-1.7,0.7c-0.5,0.2-0.5,0.4,0,0.4c0.2,0,0.3,0,0.5-0.1
		c0.1,0,0.1,0,0.2,0c0.4-0.1,0.3,0.1,0.2,0.4C99.7,78.2,99.5,78.5,99.3,78.8 M98.1,84.5c-0.6-1.3,0.7-1.4,1.5-0.9
		c0.4,0.3,0.8,0.7,1,1.1c0.3,0.4,0.4,1.3-0.3,1.4c-0.3,0.1-0.2,0.3-0.1,0.5c0.3,0.7,0.6,1,0.4,1.7c-0.4,1.2-2.3,1.9-2.9,0.5
		c0-0.1-0.1-0.2-0.1-0.3c-0.2-0.2-0.3-0.2-0.5-0.1c-0.4,0.3-0.6,0.5-1,0.2c-1.1-0.6-1.2-1.9-0.7-2.9c0.2-0.4,0.4-0.6,0.5-1.1
		c0-0.3,0.2-0.6,0.4-0.6c0.3,0,0.5,0.2,0.6,0.5c0.2,0.4,0,1-0.1,1.4c0,0.1-0.2,0.6,0,0.7s0.4-0.3,0.4-0.4c0.1-0.2,0.3-0.8,0.5-0.9
		c0.1,0,0.1,0,0.2,0.1c0.3,0.4,0.4,1.1,0.5,1.6c0,0.1,0.1,0.2,0.2,0.2c0.2,0,0.2-0.4,0.2-0.6C98.7,85.8,98.4,85.2,98.1,84.5
		 M94.6,84.5c-0.5,0.3-0.6,0.3-1-0.2c-0.2-0.2-0.4,0.1-0.5,0.3c-0.1,0.1-0.2,0.2-0.3,0.4c-0.1,0.1-0.1,0.2-0.3,0.3
		c-0.8,0.6-1.9,0.2-2.3-0.7c-0.1-0.3-0.1-0.5-0.1-0.8c0-0.2,0.1-0.7,0-0.8c-0.1-0.1-0.3-0.1-0.5-0.1c-0.4,0.1-0.7-0.1-0.9-0.5
		c-0.2-0.4-0.1-0.9,0.1-1.3c0.3-0.6,0.9-1,1.4-1.4c0.6-0.4,1.1-0.8,1.4-1.5c0.1-0.3,0.3-0.7,0.4-1c0.4-0.7,0.9-0.4,0.9,0.3
		c0,0.5-0.1,0.9-0.3,1.3c-0.3,0.8-0.7,1.5-1.5,2C91,80.9,90.8,81,90.6,81c-0.1,0-0.5,0.2-0.4,0.3c0,0.1,0.2,0.1,0.2,0.1s0,0,0.1,0
		c0.4-0.1,0.8-0.2,1.1-0.4c0.1-0.1,0.4-0.2,0.5-0.2l0,0c0.3,0.1-0.2,1.4-0.3,1.7c-0.1,0.1-0.4,1-0.2,1.1c0.1,0.1,0.4-0.4,0.5-0.5
		s0.1-0.2,0.1-0.3c0.1-0.4,0.3-0.9,0.5-1.3c0.1-0.3,0.2-0.6,0.3-0.8c0-0.1,0.1-0.2,0.2-0.3c0.1-0.1,0.2,0.3,0.3,0.4
		c0,0.2,0.1,0.3,0.1,0.5s0.1,0.4,0.1,0.5s0,0.2,0.1,0.4c0,0.1,0.1,0.4,0.2,0.3c0.1,0,0.1-0.5,0.1-0.6c0-0.6-0.2-1.2-0.3-1.7
		c-0.2-0.6-0.3-1.1-0.3-1.8c0-0.3,0-0.6,0.2-0.8c0.4-0.5,1.1,0,1.3,0.4c0.2,0.3,0.3,0.6,0.4,1c0.1,0.3,0.2,0.7,0.2,1
		c0,0.1-0.1,0.7-0.3,0.6c-0.1,0-0.2,0-0.2,0.1S95,80.9,95,80.9c0,0.1,0,0.2,0,0.3c0,0.3,0.1,0.6,0.1,0.8c0,0.3,0.1,0.7,0.1,1
		C95.3,83.6,95.1,84.2,94.6,84.5 M52.6,75.1c0.1,0.6-0.2,0.9-0.5,1.4C52,76.7,52,76.8,51.9,77c0,0.8,0.1,1.6-0.7,2.1
		c-0.5,0.3-1.2,0.4-1.7,0.1c-0.4-0.2-0.7-0.5-0.9-0.9c-0.3-0.6-0.5-1.3-1.3-1.2c-1.1,0.1-1.4-0.3-1.4-1.4c0-0.5,0.1-1.1,0.3-1.5
		c0.1-0.6,0.2-1.2,0.1-1.8c0-0.3-0.2-0.7-0.2-1c-0.1-0.3-0.1-0.7,0.3-0.8c0.5-0.1,1,0.7,1.2,1.1c0.3,0.6,0.7,1.4,0.6,2.1
		c0,0.2-0.1,0.3-0.1,0.5c-0.1,0.3-0.3,0.6-0.4,0.9c-0.1,0.1-0.1,0.3,0,0.3c0.1,0.1,0.2,0,0.3-0.2s0.3-0.4,0.4-0.6
		c0.1-0.1,0.3-0.4,0.4-0.4c0.1,0,0.2,0.4,0.3,0.5c0.1,0.4,0.3,0.8,0.4,1.2c0.1,0.2,0.4,1.1,0.6,1.1c0.1,0,0.1-0.2,0-0.3
		c0-0.5-0.2-1-0.3-1.5c0-0.1,0-0.1-0.1-0.2c-0.1-0.5-0.1-0.6,0.2-0.5s0.5,0.2,0.9,0.3c0.2,0,0.4,0,0.4,0c0.1-0.2-0.5-0.4-0.6-0.4
		c-0.6-0.3-1-0.5-1.4-1c-0.1-0.2-0.2-0.4-0.3-0.6c0-0.1-0.1-0.3-0.1-0.4c0,0,0.1,0,0.2,0c0.5,0,0.9,0,1.4-0.1c0.2,0,0.3-0.2,0-0.3
		h-0.1C49.9,72,49.4,72,49,71.9c-0.4-0.1-0.9-0.6-1.2-0.9c-0.1-0.1-0.2-0.2-0.2-0.3c-0.1-0.2-0.1-0.3,0.1-0.4
		c0.3-0.2,0.9,0.1,1.1,0.2c0.2,0.1,0.4,0.2,0.6,0.3c0.2,0.1,0.3,0.1,0.5,0.1c0.5,0.1,1,0.2,1.4,0.7c0.3,0.4,0.3,0.9,0.2,1.4
		c-0.1,0.3,0,0.6,0.2,0.9C52.2,74.3,52.5,74.4,52.6,75.1 M56.2,113.6c-1.8-0.6-3.5-1.4-5.2-2.2l0,0c-0.1-0.1-0.2-0.1-0.4-0.2
		s-0.3-0.2-0.4-0.3c-0.1-0.1-0.1-0.3-0.1-0.5c0-0.1,0-0.2,0.1-0.2c0.3-0.5,0.7-0.6,1-0.3c0.4,0.3,0.3,0.8,0.8,1.2
		c0.1,0.1,0.2,0.1,0.3,0.1c0.2,0,0.3-0.2,0.2-0.5c0-0.1-0.1-0.2-0.1-0.3c-0.2-0.6-0.3-1.5,0.2-1.9c0.2-0.2,0.4-0.2,0.6-0.1
		c0.1,0.1,0.1,0.2,0.1,0.3c0,0.2,0,0.3-0.1,0.4c0,1.1,0.2,1.8,1,2.5c0.3,0.3,0.6,0.4,0.9,0.5c0.3,0,0.3-0.2,0.1-0.4
		c-0.1-0.2-0.3-0.3-0.4-0.6c-0.6-0.9-0.9-2.4-0.1-3.3c0.1-0.1,0.2-0.2,0.4-0.3c0.1,0,0.2-0.1,0.2-0.1c0.5-0.1,0.5,0.2,0.3,0.5
		c-0.2,0.4-0.3,0.5-0.4,1c0,0.2,0,0.4,0,0.6c0.1,0.8,0.5,1.2,1,1.7c0.1,0.1,0.2,0.2,0.3,0.3c0.3,0.3,0.7,0.7,1,1
		c0.3,0.4,0.8,0.5,0.7-0.3c-0.1-0.2-0.1-0.5-0.2-0.6c0-0.1,0-0.2-0.1-0.3c0-0.1,0-0.1,0-0.2c0-0.3,0.4-0.3,0.6-0.1
		c0.5,0.5,0.7,1,1.1,1.5c0.1,0.1,0.2,0.4,0.4,0.6c0.1,0.1,0.2,0.3,0.4,0.4c0.8,0.6,0.6-0.1,0.4-0.7c-0.2-0.7-0.4-1.5-0.5-1.7
		c0-0.3-0.1-0.5,0.1-0.6c0.2-0.1,0.4,0.1,0.6,0.3c0.7,0.9,0.9,1.8,1.7,2.8c0.4,0.6,0.8,0.7,0.8,0.4c0-0.5-0.6-2-0.9-3
		c0-0.2-0.1-0.3-0.1-0.4c-0.1-0.4-0.1-0.6,0.1-0.7c0.1-0.1,0.3,0,0.5,0.3c0.1,0.1,0.2,0.3,0.3,0.5c0.4,0.6,0.7,1.4,1.1,2.2
		c0.6,1,0.8,1.4,1.1,1.3c0.2-0.1,0.1-0.5-0.1-1.3c-0.1-0.4-1-3.1-0.6-3.2c0.2-0.1,0.4,0.1,0.6,0.4c0.4,0.7,0.6,1.1,1,1.8
		c0.2,0.4,1.1,2.1,1.5,2.4c0.3,0.3,0.5,0,0.3-0.6c-0.4-1.3-0.6-1.7-0.9-2.9c-0.1-0.3-0.1-0.6,0.1-0.6c0.2-0.1,0.4,0.1,0.6,0.4
		c0.3,0.4,0.3,0.5,0.6,0.9c0.5,0.9,0.9,1.6,1.5,2.4c0.2,0.3,0.4,0.5,0.6,0.5c0.3,0,0.3-0.5,0.3-0.9c0-0.2,0-0.3,0-0.5
		c0.1-0.6,0.5-0.5,0.8-0.1s0.5,1.1,0.8,1.4c0.2,0.2,0.3,0.3,0.4,0.1c0.4-0.5-0.3-3.1,0.3-3.2c0.2,0,0.4,0.1,0.5,0.4
		c0.4,0.7,0.8,2.4,1.2,2.7c0.1,0,0.1,0.1,0.2,0.1c0.7-0.1-0.2-4.1,0.5-4.2s0.8,1.6,1.1,2.9c0.1,0.4,0.3,1.2,0.8,1.1
		c0.4,0,0.3-1.1,0.3-1.5c-0.1-1-0.1-2.6,0.7-2.6c0.8,0,0.7,1.3,0.6,2.2c0,0.2-0.1,0.4-0.1,0.6c-0.2,0.7-0.1,1.1,0,1.2
		c0.2,0.1,0.9-0.4,1.2-1.4c0.2-0.4,0.3-0.9,0.5-1.3c0.1-0.2,0.3-0.4,0.5-0.4s0.3,0.3,0.3,0.4c0,0.2,0,0.8-0.1,1.3
		c-0.2,0.8-0.1,1.7,0.6,0.8c0.3-0.4,0.5-0.9,0.8-1.4c0.2-0.3,0.4-0.5,0.6-0.5s0.3,0.3,0.3,0.6c0,0.3-0.2,0.8,0,1.1
		c0,0.1,0.1,0.1,0.3,0.1c0.6-0.2,0.6-1.1,1.2-1.4c0.4-0.3,0.8-0.2,0.6,0.5c-0.1,0.2-0.1,0.4,0,0.4c0.1,0.1,0.2,0,0.4-0.1
		c0.5-0.3,1.3-1.2,1.4-1.7c0.2-0.6,0.1-1.3-0.2-2c-0.1-0.3-0.4-0.8-0.5-1.2c-0.1-0.2-0.1-0.3-0.1-0.4s0-0.2,0.1-0.2
		c0.1-0.1,0.3,0,0.5,0.1c0.8,0.5,1.2,1.4,1.4,2.3c0.1,0.6,0,1.1-0.2,1.6c-0.1,0.2-0.1,0.4-0.1,0.5s0.1,0.2,0.2,0.1
		c0.4-0.1,0.8-0.5,0.9-0.9c0.1-0.3,0.2-0.7,0.2-1.1c0-0.1,0-0.8-0.2-1.3c-0.1-0.4,0-0.5,0.2-0.5c0.5,0.1,0.7,0.6,0.8,1
		c0.1,0.4,0,0.9,0,1.3c-0.1,0.8,0.6,0.7,0.8,0.2c0.1-0.3,0.1-0.7,0.3-0.9c0.2-0.2,0.4-0.3,0.8-0.1c0.1,0,0.2,0.1,0.3,0.2
		c0.4,0.4,0.4,0.8,0.1,1.1c-0.2,0.3-0.8,0.5-1.2,0.7c-6.1,3-12.9,4.6-20.1,4.6C66.3,116.3,61.1,115.4,56.2,113.6L56.2,113.6
		 M81.5,124l-1.5,0.3l-0.2-0.9l4.2-0.9l0.1,1l-1.5,0.3l1.1,5.1l-1.1,0.2L81.5,124z M74.4,124.8l0.1,1.5l1.9-0.1v0.9l-1.8,0.1
		l0.1,1.8l2.4-0.1v1l-3.6,0.2l-0.3-6.2l3.5-0.1l-0.1,0.9L74.4,124.8z M110.8,108.5l1.3,1.3l0.3-0.3c0.2-0.2,0.5-0.5,0.5-0.8
		s-0.1-0.5-0.3-0.7c-0.5-0.5-1-0.2-1.4,0.2L110.8,108.5z M112.7,110.3l1.9,1.8l-0.8,0.8l-4.4-4.3l1.3-1.4c0.8-0.8,1.8-1,2.7-0.2
		c0.6,0.6,0.8,1.5,0.2,2.2c0.4,0,1,0.1,1.4,0.2l1.8,0.4l-0.9,1l-1.1-0.3c-0.6-0.2-1.2-0.3-1.8-0.3
		C112.8,110.2,112.8,110.2,112.7,110.3 M105.3,113.4l-1.2,0.9l-0.6-0.8l3.4-2.6l0.5,0.8l-1.2,0.9l3.2,4.1l-0.9,0.7L105.3,113.4z
		 M99.8,117.6c0.1,0.4,0.2,0.8,0.3,1.1c0.1,0.4,0.2,0.8,0.3,1.2l1.1-0.7c-0.1-0.1-0.2-0.2-0.3-0.3c-0.2-0.2-0.4-0.4-0.7-0.6
		c-0.2-0.2-0.4-0.4-0.6-0.6C99.9,117.7,99.9,117.6,99.8,117.6 M102.3,119.9l-1.6,1l0.4,1.6l-1,0.6l-1.5-6.3l1.1-0.7l4.9,4.2l-1,0.6
		L102.3,119.9z M92.2,120.9l0.8,1.8l0.7-0.3c0.6-0.3,0.8-0.7,0.5-1.3c-0.1-0.2-0.3-0.5-0.5-0.6c-0.3-0.1-0.6-0.1-0.8,0.1L92.2,120.9
		z M93.3,123.6l0.9,2.1l-1,0.4l-2.5-5.7l1.5-0.7c0.5-0.2,1-0.4,1.6-0.4c0.7,0.1,1.2,0.5,1.4,1.1c0.5,1.1,0,2.2-1.1,2.6L93.3,123.6z
		 M122.6,90.2l1.4,0.6l0.7-1.7l0.9,0.4l-0.7,1.7l1.6,0.7l0.9-2.2l0.9,0.4l-1.4,3.3l-5.7-2.3l1.3-3.2l0.8,0.5L122.6,90.2z
		 M122.1,97.8c-0.1,0-0.3-0.1-0.4-0.1c-0.3-0.1-0.6-0.1-0.9-0.2s-0.6-0.1-0.8-0.2c-0.1,0-0.2,0-0.3-0.1c0.3,0.3,0.6,0.5,0.9,0.8
		s0.6,0.6,0.9,0.9L122.1,97.8z M123,98l-0.9,1.7l1.2,1.2l-0.5,1l-4.5-4.7l0.6-1.1l6.4,1.1l-0.6,1.1L123,98z M119.6,106.3l-5-3.6
		l0.7-0.9l5,3.6L119.6,106.3z M35.8,112.4c-0.3,0.4-0.5,0.7-0.8,1.1l-1.8,2.4l-0.9-0.7l3.8-4.8l1,0.8l-0.7,3.3
		c-0.1,0.4-0.2,0.8-0.3,1.3c0.3-0.4,0.5-0.7,0.8-1.1l1.7-2.2l0.8,0.7l-3.8,4.8l-0.9-0.7l0.7-3.1c0-0.1,0.1-0.2,0.1-0.3
		C35.5,113.3,35.6,112.8,35.8,112.4 M29.3,108.3l-1.3,1.2l1.7,1.8L29,112l-2.5-2.6l4.5-4.2l2.4,2.5l-0.8,0.5l-1.5-1.6l-1.1,1.1
		l1.3,1.3l-0.7,0.6L29.3,108.3z M21.7,96.8c-0.4,0.2-0.9,0.5-1.2,0.9c-0.3,0.5-0.4,1-0.1,1.5c0.2,0.4,0.5,0.6,0.8,0.7h0.1l-0.4,0.8
		h-0.1c-0.6-0.2-1-0.6-1.3-1.2c-0.4-0.7-0.5-1.4-0.2-2.1c0.3-0.8,0.9-1.3,1.6-1.7c0.6-0.3,1.2-0.6,1.8-0.6c1,0,1.9,0.4,2.4,1.3
		c0.3,0.5,0.4,1,0.3,1.6v0.1L24.6,98v-0.1c0-0.4,0-0.7-0.2-1c-0.3-0.4-0.7-0.7-1.2-0.7C22.7,96.3,22.1,96.5,21.7,96.8 M19.4,89.7
		l0.1,0.7c0.1,0.9-0.2,1.7-1.1,2.1c-0.1,0.1-0.3,0.1-0.4,0.1c-1.2,0.2-2-0.6-2.4-1.6c-0.3-0.7-0.3-1.4-0.2-2.1v-0.1l1,0.1V89
		c-0.1,0.6-0.1,1.1,0.1,1.7c0.2,0.5,0.6,1,1.3,0.7c0.5-0.2,0.5-0.7,0.5-1.1l-0.1-0.7c0-0.5,0-1,0.3-1.4c0.2-0.3,0.4-0.5,0.8-0.6
		c0.3-0.1,0.7-0.2,1.1-0.1c0.7,0.2,1.2,0.7,1.4,1.4c0.3,0.6,0.3,1.4,0.2,2V91l-0.9-0.2v-0.1c0.1-0.5,0.1-1-0.1-1.5
		c-0.2-0.4-0.6-0.8-1.1-0.6C19.3,88.9,19.3,89.3,19.4,89.7 M62.8,124.1l-0.2,1.5l1.8,0.2l-0.1,0.9l-1.8-0.2l-0.2,1.8l2.4,0.3l-0.1,1
		l-3.5-0.5l0.8-6.1l3.4,0.5l-0.3,0.9L62.8,124.1z M55.5,125.2c0-0.1,0-0.3,0-0.4c0-0.3,0-0.6,0-0.9s0-0.6,0-0.9c0-0.1,0-0.2,0-0.3
		c-0.2,0.3-0.4,0.7-0.6,1c-0.2,0.4-0.4,0.7-0.7,1.1L55.5,125.2z M55.5,126.2l-1.8-0.5l-0.9,1.4l-1.1-0.3l3.7-5.4l1.2,0.3l0.2,6.5
		l-1.2-0.3L55.5,126.2z M23.4,105.4l-0.7-0.9l5-3.5l0.7,0.9L23.4,105.4z M47.7,125l-1-0.5l2.6-5.6l1,0.5L47.7,125z M44,117.3
		l-2.6,4.5l-1-0.6l2.6-4.5l-1.3-0.8l0.5-0.8l3.7,2.2l-0.6,0.7L44,117.3z M125.7,73.2l-0.9,0.3l-0.2-1L126,72h0.7v6h-1.1L125.7,73.2
		L125.7,73.2z M131.2,75.6c-0.3,0.3-0.7,0.4-1.2,0.4c-1.1,0-1.9-0.8-1.9-1.9l0,0c0-1.2,0.8-2.1,2-2.1c0.6,0,1,0.2,1.4,0.6
		c0.6,0.6,0.7,1.5,0.7,2.3V75c0,1.5-0.5,3.3-2.3,3.3c-0.6,0-1.1-0.2-1.6-0.6l-0.1-0.1l0.6-0.9l0.1,0.1c0.3,0.3,0.6,0.4,1.1,0.4
		C130.9,77.2,131.2,76.3,131.2,75.6 M130.2,73c-0.6,0-0.9,0.5-0.9,1.1l0,0c0,0.6,0.3,1,1,1c0.6,0,1-0.4,1-1l0,0
		C131.2,73.5,130.9,73,130.2,73 M11.8,73.2l-0.9,0.3l-0.2-1l1.4-0.5h0.7v6h-1.1v-4.8H11.8z M17.3,75.6C17,75.9,16.6,76,16.2,76
		c-1.1,0-1.9-0.8-1.9-1.9l0,0c0-1.2,0.8-2.1,2-2.1c0.6,0,1,0.2,1.4,0.6c0.6,0.6,0.7,1.5,0.7,2.3V75c0,1.5-0.5,3.3-2.3,3.3
		c-0.6,0-1.1-0.2-1.6-0.6l-0.1-0.1l0.5-0.9l0.1,0.1c0.3,0.3,0.6,0.4,1.1,0.4C17,77.2,17.3,76.3,17.3,75.6 M16.3,73
		c-0.6,0-0.9,0.5-0.9,1.1l0,0c0,0.6,0.3,1,1,1c0.6,0,1-0.4,1-1l0,0C17.3,73.5,16.9,73,16.3,73 M27.4,31.3l1.2,1l1.2-1.4l0.7,0.6
		l-1.2,1.4l1.3,1.2l1.6-1.8l0.7,0.6l-2.3,2.7l-4.7-4l2.3-2.6l0.6,0.7L27.4,31.3z M25.5,39.4L25.5,39.4c-0.3-0.3-0.5-0.6-0.7-0.8
		l-2.3-2.8l0.6-1l4.1,5.1l-0.5,0.9l-6.3-1.6l0.7-1l3.5,0.9C24.9,39.2,25.2,39.3,25.5,39.4 M18.4,42.7l5.5,2.8l-0.5,1l-5.5-2.8
		L18.4,42.7z M19.4,50.7c-0.4-0.1-0.9-0.2-1.3-0.4l-2.7-0.9l0.3-1l5.8,2l-0.4,1.1l-3.2,0.4c-0.1,0-0.2,0-0.3,0
		c-0.4,0-0.8,0.1-1.3,0.1c0.4,0.1,0.9,0.3,1.3,0.4l2.8,0.9l-0.4,1l-5.8-2l0.4-1.2l3.3-0.4C18.6,50.7,19,50.7,19.4,50.7 M12.5,60.4
		l4.1,0.7c0.7,0.1,1.2,0,1.3-0.8c0.1-0.7-0.3-1.1-1-1.2l-4.1-0.7l0.2-1.1l4.3,0.8c1.3,0.2,1.7,1.3,1.4,2.4c-0.2,1.2-0.9,2-2.2,1.8
		l-4.3-0.8L12.5,60.4z M35.8,26.6c0.4,0,1,0.2,1.4,0.3l1.7,0.5l-1,0.9l-1-0.4c-0.6-0.2-1.2-0.4-1.7-0.4c-0.1,0-0.2,0-0.3,0.1l1.7,2
		l-0.8,0.7l-4-4.7l1.4-1.2c0.9-0.7,1.9-0.9,2.7,0C36.3,25.1,36.4,26,35.8,26.6 M70.3,13.9l-0.7-0.2c-0.5-0.1-0.9-0.3-1.2-0.7
		c-0.2-0.3-0.3-0.6-0.3-0.9c0-1.2,0.9-1.9,2.1-1.9c0.7,0,1.4,0.2,2,0.5l0,0l-0.5,0.8l0,0c-0.5-0.3-0.9-0.4-1.4-0.4s-0.9,0.3-0.9,0.8
		s0.4,0.6,0.8,0.7l0.7,0.2c0.9,0.2,1.5,0.8,1.6,1.7c0,0.2,0,0.3,0,0.4c-0.2,1.1-1.3,1.6-2.3,1.6c-0.7,0-1.4-0.1-2-0.5l0,0l0.4-0.9
		h0.1c0.5,0.3,1,0.5,1.6,0.5s1.1-0.3,1.1-0.9C71.1,14.2,70.7,14,70.3,13.9 M62.9,15.6L61,15.9l-0.2,1.7l-1.1,0.2l0.9-6.4l1.2-0.2
		l3,5.7L63.6,17L62.9,15.6z M54.2,13.9l1.7,4.9l-1.1,0.4l-1.7-4.9l-1.4,0.5l-0.3-0.9l4.1-1.4l0.2,1L54.2,13.9z M47.5,15.4L50,21
		l-1,0.5l-2.5-5.6L47.5,15.4z M40.3,19.1c0.6-0.4,1.3-0.6,2-0.6h0.1v1h-0.1c-0.5,0-1,0.1-1.4,0.4s-0.7,0.7-0.4,1.1
		c0.2,0.4,0.6,0.3,1,0.2l0.7-0.2c0.9-0.3,1.7-0.1,2.2,0.7c0.1,0.1,0.2,0.3,0.2,0.4c0.4,1.1-0.3,2-1.2,2.6c-0.6,0.4-1.3,0.6-2,0.6
		h-0.1l-0.1-1h0.1c0.6,0,1.1-0.1,1.6-0.5c0.5-0.3,0.8-0.8,0.5-1.4c-0.3-0.4-0.7-0.4-1.2-0.2l-0.6,0.2c-0.5,0.1-1,0.2-1.4,0
		c-0.3-0.1-0.5-0.3-0.7-0.6C38.9,20.8,39.3,19.7,40.3,19.1 M33.1,25.6l1.2,1.4l0.3-0.3c0.2-0.2,0.5-0.5,0.6-0.8
		c0-0.3-0.1-0.5-0.3-0.7c-0.5-0.6-1-0.3-1.4,0.1L33.1,25.6z M61.4,12.5c0,0.4-0.1,0.8-0.1,1.2s-0.1,0.8-0.1,1.2l1.3-0.2
		c-0.1-0.1-0.1-0.2-0.2-0.3c-0.1-0.3-0.3-0.5-0.4-0.8c-0.1-0.3-0.2-0.5-0.4-0.8C61.5,12.6,61.4,12.6,61.4,12.5 M129.3,52.6l-5.8,2
		l-0.4-1.1l5.8-2L129.3,52.6z M127.1,62.4c-0.2,0-0.3,0-0.5,0c-1.1-0.1-1.8-1-1.9-2.1c-0.1-0.7-0.1-1.4,0.2-2.1l0,0l0.9,0.3v0.1
		c-0.2,0.6-0.3,1.1-0.2,1.7c0.1,0.6,0.4,1.1,1.1,1c0.5-0.1,0.6-0.5,0.7-1l0.1-0.7c0-0.5,0.2-1,0.5-1.3c0.2-0.2,0.5-0.4,0.9-0.4
		c1.2-0.2,2,0.7,2.2,1.8c0.1,0.7,0.1,1.4-0.2,2v0.1l-0.9-0.4v-0.1c0.2-0.5,0.3-0.9,0.2-1.5c-0.1-0.5-0.4-0.9-0.9-0.8
		c-0.4,0.1-0.5,0.5-0.5,0.9l-0.1,0.7C128.5,61.5,128.1,62.2,127.1,62.4 M123.2,46.8l-0.1-0.7c-0.1-0.5-0.1-1,0.2-1.4
		c0.2-0.3,0.4-0.5,0.7-0.6c0.3-0.2,0.7-0.2,1.1-0.1c0.7,0.1,1.2,0.7,1.5,1.3s0.4,1.3,0.3,2v0.1l-0.9-0.1v-0.1c0.1-0.5,0.1-1-0.2-1.5
		c-0.2-0.4-0.6-0.8-1.1-0.5c-0.4,0.2-0.4,0.6-0.3,1l0.1,0.7c0.1,0.9-0.1,1.7-1,2.1c-0.1,0.1-0.3,0.1-0.4,0.1c-1.1,0.2-2-0.6-2.4-1.5
		c-0.3-0.6-0.4-1.4-0.3-2.1v-0.1h1v0.1c-0.1,0.6,0,1.1,0.2,1.7c0.2,0.5,0.7,0.9,1.3,0.7C123.3,47.8,123.3,47.3,123.2,46.8
		 M119.1,40.5c0.4-0.3,0.7-0.5,1.1-0.8l2.4-1.5l0.6,0.9l-5.2,3.3l-0.6-1l1.7-2.7c0.1-0.1,0.1-0.2,0.2-0.3c0.2-0.4,0.5-0.7,0.7-1.1
		c-0.4,0.3-0.8,0.5-1.1,0.8l-2.5,1.6l-0.6-0.9l5.2-3.3l0.7,1l-1.7,2.9C119.6,39.7,119.4,40.1,119.1,40.5 M115.7,30.6l-1.2,1l1.2,1.4
		l-0.7,0.6l-1.2-1.4l-1.3,1.2l1.6,1.8l-0.7,0.6l-2.3-2.7l4.7-4l2.3,2.6l-0.8,0.5L115.7,30.6z M112,25.6l-4,4.7l-0.9-0.8l4-4.7
		L112,25.6z M103.3,24.5c0.3-0.2,0.6-0.4,0.9-0.7l2.9-2.1l1,0.7l-5.3,3.8l-0.8-0.6l1.9-6.2l1,0.7l-1.1,3.5
		C103.6,23.8,103.5,24.2,103.3,24.5 M99,17.8l-2.4,4.6l-1-0.5l2.4-4.6l-1.4-0.7l0.4-0.8l3.8,2l-0.6,0.8L99,17.8z M91,18.2l-1.8-0.6
		l-1,1.3l-1.1-0.4l3.9-5.2l1.2,0.4l-0.1,6.5L91,19.9V18.2z M82.3,16.5l2.2,0.4l-0.4,0.9L81,17.2l1.1-6.1l1.1,0.2L82.3,16.5z
		 M91.2,14.8c-0.2,0.3-0.4,0.7-0.7,1c-0.2,0.3-0.5,0.7-0.7,1l1.2,0.4c0-0.1,0-0.3,0-0.4c0-0.3,0-0.6,0-0.9c0-0.3,0-0.6,0.1-0.9
		C91.2,15,91.2,14.9,91.2,14.8 M81.4,70c-0.1,0-0.1-0.1-0.2-0.2c-0.2-0.2-0.4-0.4-0.6-0.6c-0.4-0.5-0.4-0.5-0.1-1.1
		c0.7-1.2,0.6-1.1,1.4-2.4c0.1-0.2,0.2-0.3,0.2-0.4c0.1-0.1,0.2-0.1,0.3-0.2c0.8-0.4,2.1,0.3,1.6,1.2l0,0c-0.2,0.3-0.5,1.5-0.9,2.5
		C83,69,83,69.2,82.9,69.5C82.7,70.3,82,70.6,81.4,70"/>
</g>
</svg>